<svg width="62" height="121" viewBox="0 0 62 121" fill="none" xmlns="http://www.w3.org/2000/svg">
<path fill-rule="evenodd" clip-rule="evenodd" d="M42.3877 107.523C39.1771 104.835 35.9154 101.622 32.6999 98.0062C24.6826 88.9922 16.9621 77.4867 11.0848 65.4486C0.564523 43.8987 -2.21275 24.966 3.46635 13.5062C12.4922 -4.70447 39.4114 -0.088055 60.4058 6.98899C61.0893 7.22078 61.4533 7.96024 61.2232 8.64323C60.9913 9.32611 60.2491 9.69289 59.5664 9.46392C30.8768 -0.209938 12.2863 1.58705 5.80668 14.6631C-5.57231 37.6193 21.2778 86.7998 44.6051 105.962C40.954 100.206 40.4011 95.1755 39.8023 89.7209L39.7901 89.611C39.6868 88.6804 39.5816 87.7315 39.4605 86.7594C39.369 86.0437 39.877 85.3873 40.594 85.295C41.3084 85.2016 41.9662 85.7107 42.0551 86.4254C42.1855 87.4508 42.2954 88.4492 42.4018 89.4279C43.4204 98.7168 44.2305 106.055 60.8221 118.434C61.403 118.868 61.5172 119.684 61.0861 120.264C60.6531 120.843 59.8325 120.962 59.2543 120.531C40.1758 106.298 32.733 106.45 22.2948 112.307C21.7485 112.613 21.0779 112.486 20.6795 112.038C20.6179 111.969 20.5623 111.89 20.5145 111.807C20.163 111.177 20.3885 110.381 21.0194 110.026C28.066 106.072 34.0009 104.48 42.3877 107.523Z" fill="#6966FF"/>
</svg>
