<svg width="14" height="14" viewBox="0 0 14 14" fill="none" xmlns="http://www.w3.org/2000/svg">
<g clip-path="url(#clip0_2512_23574)">
<path d="M7.92843 12.25C7.69083 12.25 7.45311 12.1646 7.27204 11.9937C6.90932 11.6519 6.90932 11.0982 7.27204 10.7564L11.2597 7.00001L7.27262 3.24298C6.9099 2.90118 6.9099 2.34747 7.27262 2.00568C7.63535 1.66388 8.22296 1.66388 8.58568 2.00568L13.2285 6.38068C13.5913 6.72247 13.5913 7.27618 13.2285 7.61798L8.58568 11.993C8.40432 12.1652 8.16637 12.25 7.92843 12.25Z" fill="white"/>
<path opacity="0.4" d="M10.3312 7.875H1.42853C0.915779 7.875 0.5 7.48398 0.5 7C0.5 6.51602 0.915779 6.125 1.42853 6.125H10.3312L11.2598 7L10.3312 7.875Z" fill="white"/>
</g>
<defs>
<clipPath id="clip0_2512_23574">
<rect width="13" height="14" fill="white" transform="translate(0.5)"/>
</clipPath>
</defs>
</svg>
