<svg width="42" height="42" viewBox="0 0 42 42" fill="none" xmlns="http://www.w3.org/2000/svg">
<path d="M31.5 36.75C34.3995 36.75 36.75 34.3995 36.75 31.5C36.75 28.6005 34.3995 26.25 31.5 26.25C28.6005 26.25 26.25 28.6005 26.25 31.5C26.25 34.3995 28.6005 36.75 31.5 36.75Z" stroke="white" stroke-width="2" stroke-linecap="round" stroke-linejoin="round"/>
<path d="M10.5 15.75V36.75" stroke="white" stroke-width="2" stroke-linecap="round" stroke-linejoin="round"/>
<path d="M22.75 10.5H28C28.9283 10.5 29.8185 10.8687 30.4749 11.5251C31.1313 12.1815 31.5 13.0717 31.5 14V26.25" stroke="white" stroke-width="2" stroke-linecap="round" stroke-linejoin="round"/>
<path d="M10.5 15.75C13.3995 15.75 15.75 13.3995 15.75 10.5C15.75 7.60051 13.3995 5.25 10.5 5.25C7.60051 5.25 5.25 7.60051 5.25 10.5C5.25 13.3995 7.60051 15.75 10.5 15.75Z" stroke="white" stroke-width="2" stroke-linecap="round" stroke-linejoin="round"/>
</svg>
