<svg width="408" height="240" viewBox="0 0 408 240" fill="none" xmlns="http://www.w3.org/2000/svg">
<g clip-path="url(#clip0_6_1854)">
<mask id="mask0_6_1854" style="mask-type:alpha" maskUnits="userSpaceOnUse" x="0" y="0" width="1440" height="792">
<rect width="1440" height="792" fill="url(#paint0_linear_6_1854)"/>
</mask>
<g mask="url(#mask0_6_1854)">
<rect width="24" height="792" stroke="#393953" stroke-opacity="0.3"/>
<rect x="24" width="24" height="792" stroke="#393953" stroke-opacity="0.3"/>
<rect x="48" width="24" height="792" stroke="#393953" stroke-opacity="0.3"/>
<rect x="72" width="24" height="792" stroke="#393953" stroke-opacity="0.3"/>
<rect x="96" width="24" height="792" stroke="#393953" stroke-opacity="0.3"/>
<rect x="120" width="24" height="792" stroke="#393953" stroke-opacity="0.3"/>
<rect x="144" width="24" height="792" stroke="#393953" stroke-opacity="0.3"/>
<rect x="168" width="24" height="792" stroke="#393953" stroke-opacity="0.3"/>
<rect x="192" width="24" height="792" stroke="#393953" stroke-opacity="0.3"/>
<rect x="216" width="24" height="792" stroke="#393953" stroke-opacity="0.3"/>
<rect x="240" width="24" height="792" stroke="#393953" stroke-opacity="0.3"/>
<rect x="264" width="24" height="792" stroke="#393953" stroke-opacity="0.3"/>
<rect x="288" width="24" height="792" stroke="#393953" stroke-opacity="0.3"/>
<rect x="312" width="24" height="792" stroke="#393953" stroke-opacity="0.3"/>
<rect x="336" width="24" height="792" stroke="#393953" stroke-opacity="0.3"/>
<rect x="360" width="24" height="792" stroke="#393953" stroke-opacity="0.3"/>
<rect x="384" width="24" height="792" stroke="#393953" stroke-opacity="0.3"/>
<rect x="408" width="24" height="792" stroke="#393953" stroke-opacity="0.3"/>
<rect y="24" width="24" height="1440" transform="rotate(-90 0 24)" stroke="#393953" stroke-opacity="0.3"/>
<rect y="48" width="24" height="1440" transform="rotate(-90 0 48)" stroke="#393953" stroke-opacity="0.3"/>
<rect y="72" width="24" height="1440" transform="rotate(-90 0 72)" stroke="#393953" stroke-opacity="0.3"/>
<rect y="96" width="24" height="1440" transform="rotate(-90 0 96)" stroke="#393953" stroke-opacity="0.3"/>
<rect y="120" width="24" height="1440" transform="rotate(-90 0 120)" stroke="#393953" stroke-opacity="0.3"/>
<rect y="144" width="24" height="1440" transform="rotate(-90 0 144)" stroke="#393953" stroke-opacity="0.3"/>
<rect y="168" width="24" height="1440" transform="rotate(-90 0 168)" stroke="#393953" stroke-opacity="0.3"/>
<rect y="192" width="24" height="1440" transform="rotate(-90 0 192)" stroke="#393953" stroke-opacity="0.3"/>
<rect y="216" width="24" height="1440" transform="rotate(-90 0 216)" stroke="#393953" stroke-opacity="0.3"/>
<rect y="240" width="24" height="1440" transform="rotate(-90 0 240)" stroke="#393953" stroke-opacity="0.3"/>
<rect y="264" width="24" height="1440" transform="rotate(-90 0 264)" stroke="#393953" stroke-opacity="0.3"/>
</g>
</g>
<defs>
<linearGradient id="paint0_linear_6_1854" x1="720" y1="0" x2="720" y2="792" gradientUnits="userSpaceOnUse">
<stop stop-color="white"/>
<stop offset="1" stop-color="white" stop-opacity="0"/>
</linearGradient>
<clipPath id="clip0_6_1854">
<rect width="408" height="240" fill="white"/>
</clipPath>
</defs>
</svg>
