<svg width="453" height="31" viewBox="0 0 453 31" fill="none" xmlns="http://www.w3.org/2000/svg">
<path fill-rule="evenodd" clip-rule="evenodd" d="M296.615 0.18336C296.49 0.270837 292.881 0.349646 288.595 0.359137C283.078 0.371103 280.8 0.51676 280.793 0.857176C280.786 1.21121 280.669 1.21451 280.348 0.870379C280.072 0.574939 278.382 0.447851 275.755 0.525012C270.899 0.667368 267.448 0.725962 266.403 0.683462C265.466 0.6455 245.472 1.1031 245.472 1.16252C245.472 1.18686 244.003 1.2599 242.206 1.32509C237.749 1.48684 237.878 1.4559 238.291 2.26629C238.572 2.81797 238.412 2.78166 237.612 2.11362C236.809 1.44228 236.082 1.28053 234.487 1.41835C233.344 1.51696 231.407 1.61682 230.182 1.64034C228.754 1.66757 227.956 1.88007 227.956 2.23246C227.956 2.88523 226.958 2.97147 226.657 2.34469C226.542 2.10372 225.651 1.91886 224.678 1.93372C218.735 2.02367 217.52 2.11981 217.128 2.53078C216.823 2.85016 216.689 2.83283 216.683 2.4726C216.677 2.11073 215.461 1.95682 212.616 1.95682C210.384 1.95682 208.387 2.07566 208.178 2.2209C207.969 2.36615 205.453 2.54853 202.587 2.62651C191.08 2.93846 188.77 3.09072 187.896 3.59495C187.395 3.8842 186.984 3.95228 186.984 3.74638C186.984 3.54007 186.48 3.37172 185.865 3.37172C185.195 3.37172 184.862 3.58545 185.037 3.90194C185.435 4.62238 184.891 4.56957 183.751 3.77733C182.904 3.18851 182.545 3.18397 180.227 3.73318C178.8 4.0707 177.301 4.19655 176.876 4.01417C176.453 3.83221 175.816 3.75958 175.46 3.85284C175.103 3.94568 173.342 4.1033 171.546 4.20274C164.64 4.58566 161.121 4.8679 160.264 5.10846C159.774 5.24545 157.998 5.32261 156.316 5.2797C154.634 5.23678 153.104 5.37542 152.916 5.5871C152.727 5.79919 151.93 5.88708 151.142 5.78228C150.356 5.67788 148.173 5.81446 146.292 6.08555C144.412 6.35706 141.642 6.6492 140.138 6.73503C138.634 6.82085 136.602 6.98632 135.622 7.10268C134.642 7.21904 132.237 7.41627 130.278 7.5413C124.142 7.93164 114.52 8.93597 113.745 9.2669C113.47 9.38408 111.866 9.53882 110.182 9.6102C106.373 9.77195 104.862 10.0055 102.636 10.7771C101.636 11.1237 100.886 11.205 100.886 10.9665C100.886 10.4722 95.9375 10.9508 95.6513 11.4728C95.5486 11.6601 95.0813 11.7113 94.6122 11.5863C94.0665 11.4406 93.7601 11.6259 93.7601 12.1008C93.7601 12.8056 93.7204 12.8047 92.9597 12.0818C92.4372 11.5859 91.879 11.4414 91.3535 11.6671C90.9106 11.8574 89.7343 12.0744 88.7397 12.1499C87.7451 12.225 86.8473 12.4598 86.7434 12.6715C86.6329 12.898 86.0071 12.9116 85.2239 12.7045C84.012 12.3843 79.137 12.9888 76.5404 13.7814C76.0505 13.9308 75.2887 14.0113 74.8481 13.9605C74.3487 13.9027 74.2175 14.0604 74.5001 14.3781C74.8315 14.7511 74.648 14.7998 73.8173 14.5584C72.1695 14.0798 68.9286 14.2758 66.9941 14.971C66.072 15.3024 64.4735 15.5735 63.4421 15.5735C62.4101 15.5735 59.3907 15.9415 56.7323 16.3913C54.0733 16.8406 51.1638 17.3086 50.2654 17.4307C49.2957 17.5623 48.6325 17.9209 48.6325 18.3137C48.6325 18.8633 48.4769 18.886 47.7169 18.4474C47.0227 18.0472 46.6338 18.0352 46.1137 18.3966C45.7354 18.6595 44.796 18.8745 44.0265 18.8745C41.3551 18.8745 37.3506 19.7847 37.3506 20.3921C37.3506 20.7354 37.062 20.8621 36.6665 20.6925C36.2907 20.5312 35.6227 20.7412 35.1821 21.1596C34.7421 21.5784 34.3816 21.6993 34.3816 21.429C34.3816 21.1588 33.7136 20.9376 32.8972 20.9376C32.0807 20.9376 31.4127 21.1431 31.4127 21.3944C31.4127 21.6457 30.9905 21.7385 30.4751 21.6011C28.7923 21.1522 26.6642 21.7827 26.6434 22.7358C26.625 23.6019 26.6072 23.6036 25.7528 22.8188C24.89 22.0257 24.8811 22.0257 24.8722 22.8188C24.8651 23.4105 24.7326 23.4769 24.3645 23.0733C23.9572 22.6273 23.4418 22.6541 21.5529 23.2206C20.281 23.6023 18.0377 24.1573 16.5681 24.4544C10.4581 25.6886 8.25689 26.5118 8.68382 27.4022C8.80911 27.663 8.58882 28.0149 8.19454 28.1845C7.73911 28.3801 7.63223 28.3186 7.90181 28.0162C9.24792 26.5018 4.79216 26.8501 2.81307 28.4135C2.23294 28.872 1.73476 29.0073 1.60709 28.7412C1.48774 28.4919 1.00975 28.7816 0.544813 29.3849C-0.178417 30.3236 -0.180198 30.5332 0.531157 30.8385C1.73238 31.3543 3.49711 30.5621 3.5464 29.4851C3.58321 28.6846 3.6414 28.6644 4.01489 29.3238C4.52139 30.2163 5.25828 30.2964 5.95301 29.5346C6.29503 29.1596 6.45832 29.1406 6.46485 29.4752C6.47138 29.8313 6.92325 29.8037 8.10666 29.3745C9.00506 29.049 10.2075 28.7816 10.7787 28.78C11.3499 28.7787 11.8178 28.5047 11.8178 28.1713C11.8178 27.8024 12.1658 27.6584 12.7085 27.8029C13.1984 27.9337 14.0665 27.9031 14.6383 27.7356C15.2095 27.5677 16.3413 27.37 17.153 27.2966C19.3114 27.1006 21.4021 26.2229 21.0832 25.6461C20.9229 25.356 21.2263 25.1901 21.8047 25.252C22.3539 25.3106 22.9845 25.0601 23.2066 24.6954C23.5575 24.1185 23.6157 24.1276 23.652 24.7643C23.6852 25.3502 24.0777 25.4579 25.6233 25.3048C30.7637 24.7956 35.498 23.4608 35.0983 22.6339C34.9048 22.2332 35.0681 22.1676 35.6405 22.416C36.7556 22.8996 38.0453 23.0069 38.8012 22.6785C39.1462 22.5287 39.9632 22.3843 40.6164 22.3579C41.6229 22.3166 45.9266 21.6968 52.1952 20.69C53.0117 20.5592 54.3477 20.348 55.1641 20.2205C55.9806 20.0934 56.8451 19.7851 57.085 19.5351C57.3819 19.226 57.5238 19.2533 57.5304 19.6209C57.5351 19.918 57.8296 20.0364 58.1847 19.8837C58.5398 19.7315 58.7007 19.2623 58.5428 18.8419C58.2245 17.9972 59.1348 17.9622 60.3882 18.7713C61.371 19.4059 62.2207 19.415 65.5892 18.8254C67.0404 18.5716 68.2274 18.1239 68.2274 17.8305C68.2274 17.2883 69.6382 17.2417 70.3822 17.7587C70.6067 17.9147 71.1488 17.8351 71.587 17.5825C72.1755 17.2429 72.3839 17.2479 72.3839 17.6007C72.3839 17.9275 72.7117 17.9564 73.423 17.6919C74.6314 17.2429 77.5492 16.8365 81.182 16.6125C82.5916 16.525 84.091 16.2547 84.5131 16.0108C84.9359 15.7674 86.4542 15.4947 87.8876 15.4055C89.3216 15.316 90.695 15.2244 90.9397 15.2017C91.1843 15.1794 91.404 14.8361 91.4266 14.4387C91.461 13.8479 91.5418 13.8289 91.8719 14.3356C92.2757 14.9541 94.9732 15.1282 96.7291 14.6488C97.9802 14.3071 102.872 13.8524 107.368 13.6597C109.465 13.5698 111.496 13.3135 111.884 13.0903C112.271 12.8671 113.228 12.7008 114.011 12.721C116.299 12.7796 126.677 11.8177 127.007 11.5165C127.173 11.3647 127.977 11.2434 128.793 11.2463C129.61 11.2496 130.746 10.9888 131.317 10.6665C132.112 10.2188 132.356 10.2048 132.356 10.6063C132.356 10.9607 132.789 11.0371 133.692 10.8423C134.427 10.6834 135.877 10.5737 136.913 10.5984C137.95 10.6232 138.969 10.4524 139.176 10.2192C139.425 9.93948 139.92 9.93081 140.627 10.1937C141.218 10.4132 141.886 10.4643 142.111 10.3071C142.338 10.1503 143.642 9.96877 145.01 9.9044C148.942 9.71872 153.408 9.44515 153.732 9.36964C153.896 9.33168 154.897 9.33333 155.959 9.37377C157.065 9.41585 157.889 9.2475 157.889 8.97888C157.889 8.72099 158.156 8.62485 158.483 8.76514C158.809 8.90544 159.076 8.82332 159.076 8.58317C159.076 8.34303 159.36 8.14621 159.705 8.14621C160.051 8.14621 160.169 8.33189 159.967 8.55883C159.765 8.78578 160.151 8.97146 160.823 8.97146C161.495 8.97146 162.045 8.83117 162.045 8.65993C162.045 8.48827 163.849 8.33106 166.053 8.31043C168.258 8.28939 171.13 8.13383 172.437 7.96465C173.743 7.79589 175.428 7.67334 176.18 7.69273C177.028 7.7146 177.397 7.55615 177.148 7.27722C176.86 6.95289 177.09 6.95372 177.967 7.27969C179.36 7.79795 184.609 7.89987 184.609 7.40884C184.609 6.90668 187.133 6.89306 187.996 7.39069C188.506 7.68448 188.766 7.69108 188.766 7.41008C188.766 7.17654 189.3 7.08287 189.953 7.20129C190.606 7.32013 191.141 7.25617 191.141 7.05976C191.141 6.86294 193.008 6.72636 195.289 6.75648C198.235 6.79527 199.321 6.67561 199.035 6.34386C198.813 6.08679 199.084 6.13177 199.637 6.44289C200.19 6.75442 200.642 6.84726 200.642 6.6492C200.643 6.45155 202.427 6.2832 204.607 6.27536C207.249 6.26587 208.655 6.08803 208.821 5.74225C209.012 5.34448 209.264 5.33581 209.903 5.70388C210.361 5.96796 210.74 6.02201 210.745 5.82395C210.75 5.6263 210.998 5.73193 211.296 6.05956C211.73 6.53655 212.135 6.56131 213.326 6.18417C214.46 5.82519 214.883 5.83055 215.105 6.20769C215.294 6.52954 215.567 6.55801 215.886 6.28939C216.156 6.06245 217.579 5.86439 219.049 5.84953C220.518 5.83468 222.389 5.71873 223.205 5.59205C224.022 5.46538 225.018 5.54337 225.419 5.76577C225.896 6.02944 226.732 6.02861 227.827 5.76329C228.75 5.54006 230.661 5.42948 232.075 5.51778C233.489 5.60649 235.484 5.51778 236.51 5.32137C237.534 5.12455 238.938 5.10887 239.629 5.28671C240.703 5.56276 240.844 5.47941 240.603 4.71151C240.386 4.01706 240.458 3.94774 240.923 4.40658C241.664 5.13899 245.172 5.38822 245.184 4.70986C245.19 4.4301 245.436 4.48704 245.769 4.8452C246.086 5.18562 246.349 5.30198 246.354 5.10433C246.359 4.90627 246.74 4.96156 247.201 5.22729C248.16 5.78062 249.074 5.14436 248.403 4.38966C248.18 4.1392 248.705 4.25639 249.57 4.65003C250.997 5.2995 252.304 5.33581 263.745 5.04244C270.677 4.86459 276.95 4.72801 277.685 4.73874C278.42 4.74906 279.021 4.59185 279.021 4.38884C279.021 4.18582 279.438 4.01995 279.947 4.01995C280.456 4.01995 280.721 4.18995 280.536 4.3975C280.054 4.94011 287.246 4.6587 288.045 4.10371C288.473 3.80621 289.064 3.7798 289.732 4.02862C290.298 4.23906 291.66 4.41731 292.758 4.42474C293.857 4.43258 295.892 4.48374 297.28 4.53862C299.188 4.61455 299.806 4.48787 299.812 4.01995C299.82 3.56235 299.943 3.53388 300.287 3.9106C300.783 4.4528 303.445 4.49818 319.992 4.24855C330.965 4.08267 330.04 4.08721 337.756 4.16437C342.242 4.20934 344.01 4.08473 344.189 3.71048C344.325 3.42701 344.681 3.1947 344.98 3.1947C345.28 3.1947 345.458 3.42701 345.376 3.71048C345.196 4.33808 349.169 4.4301 349.821 3.81364C350.093 3.55616 350.26 3.59 350.266 3.90442C350.272 4.21347 351.076 4.38636 352.353 4.35335C353.497 4.32323 354.432 4.15405 354.432 3.97662C354.432 3.79961 355.033 3.75711 355.768 3.88172C357.759 4.22049 369.096 4.14621 369.927 3.78929C370.383 3.5933 370.494 3.65271 370.228 3.95104C369.629 4.62445 374.207 4.35954 375.438 3.64941C376.253 3.17943 376.402 3.18768 376.402 3.70099C376.402 4.13053 377.004 4.29022 378.461 4.24607C379.593 4.21223 380.676 4.07607 380.866 3.94403C381.056 3.81158 382.197 3.85779 383.401 4.04677C384.605 4.23534 386.729 4.28155 388.122 4.14869C390.341 3.93742 390.661 3.77526 390.723 2.82911C390.791 1.78517 390.805 1.79012 391.17 2.97312C391.537 4.16272 391.653 4.19862 395.405 4.29435C397.527 4.3484 399.797 4.47095 400.45 4.56585C401.103 4.66117 401.914 4.58772 402.252 4.40287C402.904 4.04553 404.22 4.08803 405.2 4.49777C405.527 4.63435 406.596 4.66365 407.575 4.56297C408.555 4.4627 409.624 4.40782 409.951 4.44083C410.277 4.47384 413.216 4.56751 416.482 4.64838C419.748 4.72967 423.316 4.91163 424.409 5.05316C425.85 5.23967 426.71 5.11506 427.527 4.60134C428.264 4.13796 428.655 4.06823 428.655 4.40039C428.655 4.72636 429.375 4.86542 430.667 4.78785C431.773 4.72183 433.13 4.92773 433.681 5.24545C434.542 5.74225 434.76 5.74018 435.223 5.23142C435.597 4.82003 435.765 4.79651 435.771 5.15467C435.776 5.43856 436.332 5.67045 437.008 5.67045C437.983 5.67045 438.167 5.47982 437.904 4.74204C437.722 4.23163 437.726 4.04595 437.914 4.32942C438.101 4.61331 438.515 4.8452 438.834 4.8452C439.152 4.8452 439.24 4.61331 439.029 4.32942C438.819 4.04595 439.162 4.25391 439.794 4.79239C440.776 5.6296 440.995 5.67417 441.311 5.10186C441.767 4.2766 443.258 4.22461 443.696 5.01892C444.029 5.62094 445.051 5.66963 446.266 5.14188C447.122 4.7701 448.981 5.21822 449.615 5.94898C450.248 6.67726 453 6.65952 453 5.92711C453 5.06059 451.669 4.4759 449.095 4.21265C447.814 4.08185 445.964 3.8157 444.984 3.62177C444.004 3.42783 442.802 3.26732 442.312 3.26485C441.822 3.26278 440.753 3.13528 439.937 2.98137C437.604 2.54234 432.204 1.95352 428.952 1.78352C427.319 1.69811 424.78 1.51366 423.311 1.37337C421.841 1.23308 416.23 1.02388 410.841 0.907929C405.453 0.792394 399.708 0.61868 398.075 0.522538C390.638 0.0835045 377.399 -0.0646276 376.469 0.281153C375.907 0.490354 375.123 0.522124 374.727 0.352535C374.332 0.182534 372.663 0.163142 371.02 0.309624C369.377 0.456106 367.912 0.441251 367.766 0.276613C367.499 -0.0233657 297.046 -0.115793 296.615 0.18336ZM376.105 1.5442C376.307 1.77114 376.189 1.95682 375.843 1.95682C375.497 1.95682 375.214 1.77114 375.214 1.5442C375.214 1.31725 375.332 1.13157 375.476 1.13157C375.62 1.13157 375.903 1.31725 376.105 1.5442ZM405.497 2.78207C405.147 3.23596 404.763 3.60733 404.641 3.60733C404.52 3.60733 404.561 3.23596 404.731 2.78207C404.902 2.32819 405.288 1.95682 405.587 1.95682C405.889 1.95682 405.848 2.32612 405.497 2.78207ZM356.213 2.78207C356.213 3.00902 356.096 3.1947 355.951 3.1947C355.807 3.1947 355.524 3.00902 355.322 2.78207C355.121 2.55513 355.239 2.36945 355.584 2.36945C355.93 2.36945 356.213 2.55513 356.213 2.78207ZM268.333 3.42536C268.333 3.77898 268.066 3.95393 267.739 3.81364C267.413 3.67335 267.145 3.3841 267.145 3.17036C267.145 2.95662 267.413 2.78207 267.739 2.78207C268.066 2.78207 268.333 3.07174 268.333 3.42536ZM446.166 5.67705C445.96 5.90771 445.544 5.98982 445.24 5.85902C444.936 5.72863 444.687 5.81859 444.687 6.05873C444.687 6.68964 445.61 6.59556 446.468 5.87677C446.875 5.53635 447.057 5.25783 446.873 5.25783C446.689 5.25783 446.37 5.4464 446.166 5.67705ZM165.608 6.90833C165.608 7.13527 165.491 7.32095 165.346 7.32095C165.202 7.32095 164.919 7.13527 164.717 6.90833C164.516 6.68139 164.634 6.4957 164.979 6.4957C165.325 6.4957 165.608 6.68139 165.608 6.90833ZM17.2705 25.9786C16.8448 26.2745 16.5681 26.2988 16.5681 26.0405C16.5681 25.4897 17.2705 25.0015 17.6666 25.2772C17.8352 25.3944 17.6571 25.71 17.2705 25.9786Z" fill="#C4F800"/>
</svg>
