<svg width="32" height="32" viewBox="0 0 32 32" fill="none" xmlns="http://www.w3.org/2000/svg">
<path d="M0 8V27C0 28.6562 1.34312 30 3 30C4.65688 30 6 28.6562 6 27V6H2C0.895625 6 0 6.89375 0 8ZM17 18H11C10.45 18 10 18.45 10 19C10 19.55 10.45 20 11 20H17C17.5522 20 18 19.5522 18 19C18 18.45 17.55 18 17 18ZM21 20H27C27.5522 20 28 19.5522 28 19C28 18.45 27.55 18 27 18H21C20.45 18 20 18.45 20 19C20 19.55 20.45 20 21 20ZM17 24H11C10.45 24 10 24.45 10 25C10 25.55 10.45 26 11 26H17C17.5522 26 18 25.5522 18 25C18 24.45 17.55 24 17 24ZM27 24H21C20.4478 24 20 24.4476 20 25C20 25.5522 20.4478 26 21 26H27C27.5522 26 28 25.5522 28 25C28 24.45 27.55 24 27 24Z" fill="#651FFF"/>
<path opacity="0.4" d="M30 2H8C6.89375 2 6 2.89562 6 4V27C6 28.6562 4.65688 30 3 30H28C30.2094 30 32 28.2094 32 26V4C32 2.89562 31.1063 2 30 2ZM17 26H11C10.45 26 10 25.55 10 25C10 24.45 10.45 24 11 24H17C17.5522 24 18 24.4476 18 25C18 25.55 17.55 26 17 26ZM17 20H11C10.45 20 10 19.55 10 19C10 18.45 10.45 18 11 18H17C17.55 18 18 18.45 18 19C18 19.55 17.55 20 17 20ZM27 26H21C20.4478 26 20 25.5522 20 25C20 24.4476 20.4478 24 21 24H27C27.5522 24 28 24.4476 28 25C28 25.55 27.55 26 27 26ZM27 20H21C20.45 20 20 19.55 20 19C20 18.45 20.45 18 21 18H27C27.55 18 28 18.45 28 19C28 19.55 27.55 20 27 20ZM28 13C28 13.55 27.55 14 27 14H11C10.45 14 10 13.55 10 13V7C10 6.45 10.45 6 11 6H27C27.55 6 28 6.45 28 7V13Z" fill="#651FFF"/>
</svg>
