<svg width="120" height="24" viewBox="0 0 120 24" fill="none" xmlns="http://www.w3.org/2000/svg">
<path d="M110.371 8.7375L114.168 9.28594C114.454 9.32813 114.689 9.525 114.778 9.79688C114.862 10.0687 114.792 10.3687 114.585 10.5656L111.839 13.2469L112.485 17.0297C112.532 17.3109 112.42 17.5969 112.185 17.7234C111.956 17.9344 111.651 17.9531 111.398 17.8219L108 16.0359L104.601 17.8219C104.348 17.9531 104.043 17.9344 103.814 17.7234C103.579 17.5969 103.467 17.3109 103.514 17.0297L104.16 13.2469L101.414 10.5656C101.207 10.3687 101.137 10.0687 101.221 9.79688C101.31 9.525 101.545 9.32813 101.831 9.28594L105.628 8.7375L107.329 5.29219C107.451 5.03906 107.714 4.875 108 4.875C108.285 4.875 108.548 5.03906 108.67 5.29219L110.371 8.7375Z" fill="#651FFF"/>
<path opacity="0.4" d="M97.5 4.5C97.5 2.84297 98.843 1.5 100.5 1.5H115.5C117.155 1.5 118.5 2.84297 118.5 4.5V19.5C118.5 21.1547 117.155 22.5 115.5 22.5H100.5C98.843 22.5 97.5 21.1547 97.5 19.5V4.5ZM107.33 5.29219L105.628 8.7375L101.831 9.28594C101.545 9.32813 101.311 9.525 101.222 9.79688C101.138 10.0688 101.208 10.3687 101.414 10.5656L104.161 13.2469L103.514 17.0297C103.467 17.3109 103.58 17.5969 103.814 17.7234C104.044 17.9344 104.348 17.9531 104.602 17.8219L107.958 16.0359L111.398 17.8219C111.652 17.9531 111.956 17.9344 112.186 17.7234C112.42 17.5969 112.533 17.3109 112.486 17.0297L111.839 13.2469L114.586 10.5656C114.792 10.3687 114.863 10.0688 114.778 9.79688C114.689 9.525 114.455 9.32813 114.169 9.28594L110.372 8.7375L108.67 5.29219C108.548 5.03906 108.286 4.875 107.958 4.875C107.714 4.875 107.452 5.03906 107.33 5.29219Z" fill="#651FFF"/>
<path d="M86.3714 8.7375L90.1683 9.28594C90.4542 9.32813 90.6886 9.525 90.7777 9.79688C90.8621 10.0687 90.7917 10.3687 90.5855 10.5656L87.8386 13.2469L88.4855 17.0297C88.5324 17.3109 88.4199 17.5969 88.1855 17.7234C87.9558 17.9344 87.6511 17.9531 87.398 17.8219L83.9996 16.0359L80.6011 17.8219C80.348 17.9531 80.0433 17.9344 79.8136 17.7234C79.5792 17.5969 79.4667 17.3109 79.5136 17.0297L80.1605 13.2469L77.4136 10.5656C77.2074 10.3687 77.1371 10.0687 77.2214 9.79688C77.3105 9.525 77.5449 9.32813 77.8308 9.28594L81.6277 8.7375L83.3292 5.29219C83.4511 5.03906 83.7136 4.875 83.9996 4.875C84.2855 4.875 84.548 5.03906 84.6699 5.29219L86.3714 8.7375Z" fill="#651FFF"/>
<path opacity="0.4" d="M73.5 4.5C73.5 2.84297 74.843 1.5 76.5 1.5H91.5C93.1547 1.5 94.5 2.84297 94.5 4.5V19.5C94.5 21.1547 93.1547 22.5 91.5 22.5H76.5C74.843 22.5 73.5 21.1547 73.5 19.5V4.5ZM83.3297 5.29219L81.6281 8.7375L77.8313 9.28594C77.5453 9.32813 77.3109 9.525 77.2219 9.79688C77.1375 10.0688 77.2078 10.3687 77.4141 10.5656L80.1609 13.2469L79.5141 17.0297C79.4672 17.3109 79.5797 17.5969 79.8141 17.7234C80.0437 17.9344 80.3484 17.9531 80.6016 17.8219L83.9578 16.0359L87.3984 17.8219C87.6516 17.9531 87.9562 17.9344 88.1859 17.7234C88.4203 17.5969 88.5328 17.3109 88.4859 17.0297L87.8391 13.2469L90.5859 10.5656C90.7922 10.3687 90.8625 10.0688 90.7781 9.79688C90.6891 9.525 90.4547 9.32813 90.1688 9.28594L86.3719 8.7375L84.6703 5.29219C84.5484 5.03906 84.2859 4.875 83.9578 4.875C83.7141 4.875 83.4516 5.03906 83.3297 5.29219Z" fill="#651FFF"/>
<path d="M62.3714 8.7375L66.1683 9.28594C66.4542 9.32813 66.6886 9.525 66.7777 9.79688C66.8621 10.0687 66.7917 10.3687 66.5855 10.5656L63.8386 13.2469L64.4855 17.0297C64.5324 17.3109 64.4199 17.5969 64.1855 17.7234C63.9558 17.9344 63.6511 17.9531 63.398 17.8219L59.9996 16.0359L56.6011 17.8219C56.348 17.9531 56.0433 17.9344 55.8136 17.7234C55.5792 17.5969 55.4667 17.3109 55.5136 17.0297L56.1605 13.2469L53.4136 10.5656C53.2074 10.3687 53.1371 10.0687 53.2214 9.79688C53.3105 9.525 53.5449 9.32813 53.8308 9.28594L57.6277 8.7375L59.3292 5.29219C59.4511 5.03906 59.7136 4.875 59.9996 4.875C60.2855 4.875 60.548 5.03906 60.6699 5.29219L62.3714 8.7375Z" fill="#651FFF"/>
<path opacity="0.4" d="M49.5 4.5C49.5 2.84297 50.843 1.5 52.5 1.5H67.5C69.1547 1.5 70.5 2.84297 70.5 4.5V19.5C70.5 21.1547 69.1547 22.5 67.5 22.5H52.5C50.843 22.5 49.5 21.1547 49.5 19.5V4.5ZM59.3297 5.29219L57.6281 8.7375L53.8313 9.28594C53.5453 9.32813 53.3109 9.525 53.2219 9.79688C53.1375 10.0688 53.2078 10.3687 53.4141 10.5656L56.1609 13.2469L55.5141 17.0297C55.4672 17.3109 55.5797 17.5969 55.8141 17.7234C56.0437 17.9344 56.3484 17.9531 56.6016 17.8219L59.9578 16.0359L63.3984 17.8219C63.6516 17.9531 63.9562 17.9344 64.1859 17.7234C64.4203 17.5969 64.5328 17.3109 64.4859 17.0297L63.8391 13.2469L66.5859 10.5656C66.7922 10.3687 66.8625 10.0688 66.7781 9.79688C66.6891 9.525 66.4547 9.32813 66.1688 9.28594L62.3719 8.7375L60.6703 5.29219C60.5484 5.03906 60.2859 4.875 59.9578 4.875C59.7141 4.875 59.4516 5.03906 59.3297 5.29219Z" fill="#651FFF"/>
<path d="M38.3714 8.7375L42.1683 9.28594C42.4542 9.32813 42.6886 9.525 42.7777 9.79688C42.8621 10.0687 42.7917 10.3687 42.5855 10.5656L39.8386 13.2469L40.4855 17.0297C40.5324 17.3109 40.4199 17.5969 40.1855 17.7234C39.9558 17.9344 39.6511 17.9531 39.398 17.8219L35.9996 16.0359L32.6011 17.8219C32.348 17.9531 32.0433 17.9344 31.8136 17.7234C31.5792 17.5969 31.4667 17.3109 31.5136 17.0297L32.1605 13.2469L29.4136 10.5656C29.2074 10.3687 29.1371 10.0687 29.2214 9.79688C29.3105 9.525 29.5449 9.32813 29.8308 9.28594L33.6277 8.7375L35.3292 5.29219C35.4511 5.03906 35.7136 4.875 35.9996 4.875C36.2855 4.875 36.548 5.03906 36.6699 5.29219L38.3714 8.7375Z" fill="#651FFF"/>
<path opacity="0.4" d="M25.5 4.5C25.5 2.84297 26.843 1.5 28.5 1.5H43.5C45.1547 1.5 46.5 2.84297 46.5 4.5V19.5C46.5 21.1547 45.1547 22.5 43.5 22.5H28.5C26.843 22.5 25.5 21.1547 25.5 19.5V4.5ZM35.3297 5.29219L33.6281 8.7375L29.8313 9.28594C29.5453 9.32813 29.3109 9.525 29.2219 9.79688C29.1375 10.0688 29.2078 10.3687 29.4141 10.5656L32.1609 13.2469L31.5141 17.0297C31.4672 17.3109 31.5797 17.5969 31.8141 17.7234C32.0437 17.9344 32.3484 17.9531 32.6016 17.8219L35.9578 16.0359L39.3984 17.8219C39.6516 17.9531 39.9562 17.9344 40.1859 17.7234C40.4203 17.5969 40.5328 17.3109 40.4859 17.0297L39.8391 13.2469L42.5859 10.5656C42.7922 10.3687 42.8625 10.0688 42.7781 9.79688C42.6891 9.525 42.4547 9.32813 42.1688 9.28594L38.3719 8.7375L36.6703 5.29219C36.5484 5.03906 36.2859 4.875 35.9578 4.875C35.7141 4.875 35.4516 5.03906 35.3297 5.29219Z" fill="#651FFF"/>
<path d="M14.3714 8.7375L18.1683 9.28594C18.4542 9.32813 18.6886 9.525 18.7777 9.79688C18.8621 10.0687 18.7917 10.3687 18.5855 10.5656L15.8386 13.2469L16.4855 17.0297C16.5324 17.3109 16.4199 17.5969 16.1855 17.7234C15.9558 17.9344 15.6511 17.9531 15.398 17.8219L11.9996 16.0359L8.60112 17.8219C8.34799 17.9531 8.04331 17.9344 7.81362 17.7234C7.57924 17.5969 7.46674 17.3109 7.51362 17.0297L8.16049 13.2469L5.41362 10.5656C5.20737 10.3687 5.13706 10.0687 5.22143 9.79688C5.31049 9.525 5.54487 9.32813 5.83081 9.28594L9.62768 8.7375L11.3292 5.29219C11.4511 5.03906 11.7136 4.875 11.9996 4.875C12.2855 4.875 12.548 5.03906 12.6699 5.29219L14.3714 8.7375Z" fill="#651FFF"/>
<path opacity="0.4" d="M1.5 4.5C1.5 2.84297 2.84297 1.5 4.5 1.5H19.5C21.1547 1.5 22.5 2.84297 22.5 4.5V19.5C22.5 21.1547 21.1547 22.5 19.5 22.5H4.5C2.84297 22.5 1.5 21.1547 1.5 19.5V4.5ZM11.3297 5.29219L9.62812 8.7375L5.83125 9.28594C5.54531 9.32813 5.31094 9.525 5.22188 9.79688C5.1375 10.0688 5.20781 10.3687 5.41406 10.5656L8.16094 13.2469L7.51406 17.0297C7.46719 17.3109 7.57969 17.5969 7.81406 17.7234C8.04375 17.9344 8.34844 17.9531 8.60156 17.8219L11.9578 16.0359L15.3984 17.8219C15.6516 17.9531 15.9562 17.9344 16.1859 17.7234C16.4203 17.5969 16.5328 17.3109 16.4859 17.0297L15.8391 13.2469L18.5859 10.5656C18.7922 10.3687 18.8625 10.0688 18.7781 9.79688C18.6891 9.525 18.4547 9.32813 18.1688 9.28594L14.3719 8.7375L12.6703 5.29219C12.5484 5.03906 12.2859 4.875 11.9578 4.875C11.7141 4.875 11.4516 5.03906 11.3297 5.29219Z" fill="#651FFF"/>
</svg>
