<svg width="64" height="64" viewBox="0 0 64 64" fill="none" xmlns="http://www.w3.org/2000/svg">
<path d="M57.1558 43.7013C57.5002 43.3235 57.5447 42.7679 57.278 42.3235C57.0336 41.9124 56.8225 41.5568 56.578 41.2235C54.0447 37.7124 52.6558 35.8791 50.1558 32.3457C49.5225 31.4568 47.9891 28.7346 47.4002 27.8013C47.3891 27.7902 47.3891 27.7791 47.378 27.7679C46.8447 26.9679 45.5336 27.0235 45.1113 27.9013C45.1113 27.9013 45.1113 27.9124 45.1002 27.9124C44.478 29.2791 43.978 30.6902 43.4002 32.0791C41.8114 35.9124 39.6002 39.2346 35.9225 41.4124C34.5891 42.2013 34.5669 42.7791 35.6002 43.9235C35.9891 44.3457 36.378 44.7791 36.8002 45.1568C40.878 48.7902 43.6891 53.2791 45.7891 58.2791C45.9225 58.5902 46.1891 58.8346 46.478 59.0791C46.8558 59.3902 47.4002 59.3457 47.7336 58.9902C48.0113 58.7013 48.2669 58.3902 48.4225 58.0457C48.7669 57.2457 48.8558 56.3457 49.0669 55.4902C50.2002 50.8346 52.7225 47.1235 56.5558 44.2679C56.7669 44.1124 56.9558 43.9124 57.1558 43.7013ZM46.9447 54.8568C45.6225 52.6568 44.5113 50.3902 43.0002 48.4124C41.4558 46.4013 39.5225 44.6902 37.7558 42.8346C42.2447 40.1457 44.8447 35.8902 46.4113 30.6679C48.7113 35.4235 51.8891 39.2013 55.378 42.7346C49.8669 46.9346 48.5558 48.8346 46.9447 54.8568Z" fill="white"/>
<path d="M15.2557 5.35597C14.2446 8.22264 13.3668 11.1449 12.2557 13.9671C11.1668 16.7004 9.54463 19.1337 7.21129 21.0115C6.35574 21.7004 6.37796 22.3226 7.07796 23.1004C11.0113 27.3782 14.0335 32.2226 16.2002 37.6115C16.4335 38.1893 17.0557 39.1115 17.4891 39.1115C18.6669 39.3893 19.0891 37.0893 19.1335 36.8782C20.1224 31.456 23.478 27.5115 27.2446 23.8226C28.4669 22.6226 28.5669 22.256 27.3669 21.1004C22.8446 16.7671 19.8446 11.4337 17.2669 5.82263C16.4557 3.86708 15.378 5.01152 15.2557 5.35597ZM8.56685 22.3337C10.9668 20.8115 12.5557 18.7782 13.7113 16.4782C14.8335 14.2226 15.6557 11.8337 16.5891 9.54486C18.7446 14.3671 21.6557 18.8226 26.078 22.2115C21.8002 25.5782 18.4224 29.4226 17.3891 34.9337C15.5335 29.9782 12.5891 25.856 8.56685 22.3337Z" fill="white"/>
<path d="M45.6221 17.3127C43.1665 14.0127 41.6665 10.246 40.2887 6.4127C40.1998 6.16826 39.911 4.77937 38.8554 4.79048C38.5554 4.79048 38.0554 5.26826 37.8665 5.64604C37.0332 7.34604 36.5109 9.24604 35.4554 10.7794C34.2109 12.6016 32.4998 14.1016 31.0554 15.7794C30.8443 16.0238 30.7665 16.5794 30.8998 16.8794C31.1554 17.4349 31.6109 17.8794 31.9665 18.3905C33.7776 21.0571 35.5554 23.746 37.4221 26.3683C37.8109 26.9127 38.5776 27.5683 39.0332 27.5683C40.1665 27.5794 40.3887 26.6905 40.5887 26.0571C41.4998 23.146 43.0665 20.7127 45.3443 18.7016C46.1554 17.946 45.7221 17.446 45.6221 17.3127ZM33.1443 16.546C35.7887 14.6683 37.5887 11.9571 38.6776 8.92381C40.2887 11.8794 41.9332 14.8905 43.6221 18.0016C41.3554 19.5683 39.7776 22.4905 39.0554 24.646C37.0776 21.9349 35.1221 19.2571 33.1443 16.546Z" fill="white"/>
</svg>
