<svg width="56" height="48" viewBox="0 0 56 48" fill="none" xmlns="http://www.w3.org/2000/svg">
<path fill-rule="evenodd" clip-rule="evenodd" d="M0.932039 1.22961C0.708285 1.99225 0.521823 2.77148 0.447239 3.5507C0.204839 6.30284 -0.0748525 15.5374 0.0183782 17.3943C0.0183782 17.958 0.130255 18.588 0.391301 19.102C0.857454 20.0138 2.05081 20.0801 2.70342 19.2346C2.94582 18.9362 3.09499 18.5383 3.16957 18.157C3.37468 17.0462 3.5425 15.9353 3.63573 14.8245C3.89677 11.4755 4.13917 8.10997 4.30699 4.76098C4.36293 3.65017 4.2324 2.52279 4.08323 1.41198C3.97136 0.583026 3.20687 -0.046984 2.49831 0.00275351C1.65924 0.0690702 1.13715 0.549866 0.932039 1.22961ZM26.634 22.5935L26.634 22.5934C26.76 22.1075 26.8731 21.6711 27.0381 21.2424C29.4621 14.876 33.3591 9.20589 37.7969 3.81765C38.319 3.18765 38.9716 2.5908 39.6988 2.1929C40.0904 1.97737 40.8735 2.01052 41.321 2.22605C41.6567 2.39185 41.8991 3.03843 41.8245 3.40317C41.694 4.0995 41.4143 4.81241 41.0227 5.44242C38.4495 9.60379 35.8577 13.7486 33.2286 17.8768C32.4552 19.0834 31.6476 20.2799 30.8414 21.4742C30.6174 21.806 30.3936 22.1376 30.1706 22.4692C29.835 22.9832 29.4621 23.4806 29.0705 23.9448C28.6417 24.4753 27.989 24.7903 27.3364 24.4422C27.322 24.4343 27.3075 24.4266 27.2929 24.4189C27.2661 24.4046 27.2391 24.3906 27.2122 24.3765C26.8223 24.173 26.4414 23.9742 26.4414 23.3148C26.5129 23.0606 26.5749 22.8216 26.634 22.5935ZM52.8426 47.9987C52.5434 47.9544 52.2276 47.9138 51.9021 47.8719L51.9019 47.8719C51.2536 47.7885 50.5668 47.7001 49.8965 47.5677L49.896 47.5676L49.8955 47.5675C45.9242 46.7717 41.9529 45.976 38.0003 45.1471C37.1425 44.9648 36.3035 44.6498 35.539 44.285C34.5134 43.8042 34.1591 43.1245 34.327 42.3784C34.4948 41.6323 35.166 41.1681 36.3407 41.1515C37.1425 41.135 38.0003 41.1515 38.7648 41.3173C43.7806 42.4447 48.7964 43.6053 53.7935 44.7824C54.3529 44.915 54.931 45.1471 55.3598 45.4787C56.4413 46.2911 56.1057 47.5677 54.7258 47.8827C54.384 47.956 54.0125 47.9632 53.6016 47.971C53.3625 47.9756 53.1101 47.9804 52.8426 47.9987Z" fill="#6966FF"/>
</svg>
