<svg width="32" height="28" viewBox="0 0 32 28" fill="none" xmlns="http://www.w3.org/2000/svg">
<g clip-path="url(#clip0_2512_23634)">
<path d="M27.2393 0.718047L30.4226 5.67656C32.0726 8.24141 30.6115 11.8016 27.5282 12.2063C27.3115 12.2336 27.0893 12.25 26.856 12.25C25.4115 12.25 24.1226 11.6266 23.2393 10.6641C22.356 11.6266 21.0671 12.25 19.6171 12.25C18.1671 12.25 16.8782 11.6266 15.9949 10.6641C15.1115 11.6266 13.8282 12.25 12.3726 12.25C10.9282 12.25 9.63931 11.6266 8.75598 10.6641C7.87265 11.6266 6.58376 12.25 5.13154 12.25C4.90598 12.25 4.67876 12.2336 4.4582 12.2063C1.38487 11.8016 -0.0692964 8.23594 1.57431 5.67656L4.75931 0.718047C5.04265 0.272289 5.54876 0 6.08931 0H25.9115C26.4504 0 26.956 0.272234 27.2393 0.718047Z" fill="#651FFF"/>
<path opacity="0.4" d="M4.45733 12.2062C4.67844 12.2336 4.90566 12.25 5.13122 12.25C5.839 12.25 6.51122 12.1023 7.11122 11.8398V21H24.889V11.8398C25.489 12.1023 26.1557 12.25 26.8557 12.25C27.089 12.25 27.3112 12.2336 27.5279 12.2062C27.8557 12.1625 28.1612 12.0859 28.4446 11.982V24.5C28.4446 26.4305 26.8501 28 24.889 28H7.11122C5.14733 28 3.55566 26.4305 3.55566 24.5V11.982C3.83789 12.0859 4.139 12.1625 4.45789 12.2062H4.45733Z" fill="#651FFF"/>
</g>
<defs>
<clipPath id="clip0_2512_23634">
<rect width="32" height="28" fill="white"/>
</clipPath>
</defs>
</svg>
