<svg width="224" height="20" viewBox="0 0 224 20" fill="none" xmlns="http://www.w3.org/2000/svg">
<path fill-rule="evenodd" clip-rule="evenodd" d="M81.0206 6.96902C104.847 4.66001 127.214 3.84339 148.799 3.67963C104.303 1.05511 59.484 1.8881 15.1876 6.16223C39.4884 7.3282 59.5918 7.37078 81.0206 6.96902ZM11.2526 18.8763C11.0455 18.2933 11.491 17.6939 12.2459 17.5335C28.8474 14.0312 44.6757 11.3772 59.8739 9.38149C41.9031 9.37494 23.4739 8.95026 1.30729 7.58996C0.586474 7.5452 0.025994 7.09213 0.00187209 6.53753C-0.0236688 5.98183 0.499919 5.50147 1.21364 5.42068C55.2766 -0.673371 110.242 -1.633 164.584 2.56143C165.328 2.6193 165.878 3.1073 165.863 3.67173C176.862 3.73614 187.702 3.91737 198.467 4.09641C206.378 4.22851 214.558 4.36498 222.602 4.45013C223.382 4.45777 224.007 4.94905 224.001 5.54842C223.995 6.14887 223.362 6.6336 222.582 6.6336C175.092 6.6336 141.092 7.57904 113.774 8.33779C102.219 8.65985 91.59 8.95571 81.2701 9.14895C59.8498 11.2298 37.2504 14.5214 12.9965 19.6405C12.8702 19.6656 12.7439 19.6787 12.6205 19.6787C11.9976 19.6787 11.4257 19.361 11.2526 18.8763Z" fill="#6966FF"/>
</svg>
