<svg width="29" height="32" viewBox="0 0 29 32" fill="none" xmlns="http://www.w3.org/2000/svg">
<g clip-path="url(#clip0_2512_23586)">
<path d="M3.10714 14C3.68196 14 4.14286 13.5562 4.14286 13V12C4.14286 6.48438 8.78739 2 14.5 2C20.2126 2 24.8571 6.48438 24.8571 12V13C24.8571 15.7563 22.5333 18 19.6786 18H17.6071C17.6071 16.8988 16.6763 16 15.5357 16H13.4643C12.3237 16 11.3929 16.8988 11.3929 18C11.3929 19.1012 12.3237 20 13.4643 20H19.6786C23.6842 19.9922 26.9221 16.8669 26.9286 13V12C26.9286 5.38125 21.3532 0 14.5 0C7.64681 0 2.07143 5.38312 2.07143 12V13C2.07143 13.5562 2.53297 14 3.10714 14ZM20.3712 22H8.62879C3.86451 22 0 25.7312 0 30.3312C0 31.2562 0.772902 32 1.72576 32H27.2717C28.2297 32 29 31.2562 29 30.3312C29 25.7312 25.1355 22 20.3712 22Z" fill="#651FFF"/>
<path opacity="0.4" d="M13.4644 14H15.5358C17.0169 14 18.3827 14.7625 19.1194 15.9969L19.6786 16C21.394 16 22.7858 14.6562 22.7858 13.0562V12C22.7858 7.57812 19.0799 4 14.5001 4C9.92027 4 6.21436 7.57812 6.21436 12C6.21436 14.5237 7.45203 16.7494 9.34545 18.2181C9.33444 18.1375 9.3215 18.0812 9.3215 18C9.3215 15.7875 11.1728 14 13.4644 14Z" fill="#651FFF"/>
</g>
<defs>
<clipPath id="clip0_2512_23586">
<rect width="29" height="32" fill="white"/>
</clipPath>
</defs>
</svg>
