<svg width="182" height="16" viewBox="0 0 182 16" fill="none" xmlns="http://www.w3.org/2000/svg">
<path fill-rule="evenodd" clip-rule="evenodd" d="M90.5641 0.0568825C90.5252 0.0943975 88.1987 0.195418 85.3938 0.281482C80.0451 0.445518 78.1401 0.538937 75.787 0.752747C75.0042 0.823609 73.0757 0.947924 71.5016 1.02884C69.9275 1.10975 67.8461 1.28286 66.8761 1.4138C65.9062 1.54473 64.7615 1.64698 64.3324 1.6406C63.903 1.63447 63.4438 1.69822 63.3117 1.78257C63.1795 1.86716 62.4634 1.97627 61.72 2.02531C59.9898 2.13957 58.4703 2.30484 56.099 2.63659C55.0553 2.78248 53.8811 2.94014 53.4897 2.98697C53.0983 3.03356 52.5112 3.126 52.1851 3.1922C51.8589 3.2584 50.9516 3.394 50.1688 3.49355C49.3861 3.5931 48.6389 3.75762 48.5084 3.85913C48.3779 3.96089 48.0044 4.0217 47.6782 3.99424C47.352 3.96677 46.9104 4.03151 46.6964 4.13767C46.4827 4.24409 45.949 4.3532 45.5104 4.37993C45.072 4.40665 44.6107 4.48536 44.4854 4.55475C44.3602 4.62414 43.7731 4.71045 43.1808 4.74649C42.5885 4.78254 41.6769 4.92034 41.1551 5.05274C38.7263 5.66941 37.9108 5.81653 37.6931 5.67726C37.5635 5.59463 37.3074 5.65593 37.1235 5.81359C36.9399 5.971 36.5796 6.03108 36.323 5.94697C35.9842 5.8359 35.8139 5.93153 35.7022 6.29515C35.5653 6.74116 35.5089 6.75587 35.1922 6.42854C34.955 6.18334 34.7031 6.13111 34.4377 6.2721C34.2182 6.38832 33.9056 6.43418 33.7424 6.37386C33.5749 6.31158 33.4442 6.45968 33.4423 6.71345C33.44 6.98709 33.3705 7.05722 33.2644 6.89269C33.0303 6.52956 32.3268 6.60826 27.3972 7.54884C25.9621 7.82247 24.5339 8.17752 24.2231 8.33763C23.9126 8.49774 23.3974 8.59337 23.0784 8.54997C22.4154 8.46023 20.1631 8.96999 20.1612 9.21028C20.1605 9.29782 19.6541 9.40031 19.0359 9.43758C17.3802 9.53786 16.1781 9.93263 16.0555 10.4166C15.9544 10.8146 15.9461 10.8144 15.9202 10.4117C15.8925 9.97921 15.4062 9.83185 15.0891 10.1597C14.9949 10.257 14.6301 10.3504 14.2786 10.3674C13.927 10.384 13.3191 10.5405 12.9277 10.7146C12.5363 10.8886 11.9758 11.0171 11.6823 11C11.2829 10.9767 11.1486 11.1034 11.1486 11.5034C11.1486 12.0224 11.1389 12.0241 10.8156 11.5671C10.4885 11.1049 10.4498 11.1064 8.62145 11.6615C7.59791 11.9724 6.44011 12.3721 6.04873 12.5496C5.28374 12.8968 4.49741 13.2185 4.21039 13.3024C4.11266 13.3308 3.95231 13.3811 3.85458 13.4137C3.75685 13.4465 3.60694 13.4639 3.52154 13.4522C3.43615 13.4406 3.23785 13.5912 3.08058 13.7869C2.84646 14.0784 2.90956 14.188 3.42904 14.392C4.29151 14.7311 4.44475 14.7098 4.72512 14.2123C4.85938 13.9742 4.97016 13.9195 4.97419 14.0897C4.98273 14.4592 5.78899 14.4916 6.41118 14.1473C6.65882 14.0102 7.15884 13.8582 7.52248 13.8094C8.36029 13.6966 9.5354 13.3906 9.84401 13.2048C9.97447 13.1261 10.2947 13.0297 10.5556 12.9905C10.8165 12.9512 11.1901 12.8463 11.3858 12.7573C11.5815 12.668 11.999 12.5643 12.3138 12.5266C12.6283 12.4888 12.9737 12.3147 13.0809 12.1396C13.1986 11.9481 13.2775 11.93 13.2799 12.094C13.2851 12.4836 14.525 12.2149 14.8846 11.7463C15.063 11.5139 15.1811 11.4764 15.1811 11.6522C15.1811 11.9521 16.1724 12.0636 16.434 11.7932C16.5742 11.6485 18.1701 11.421 19.0357 11.4227C19.2641 11.4229 19.4508 11.3378 19.4508 11.2331C19.4508 11.1284 19.9435 11.0237 20.5457 11.0002C21.1478 10.9767 21.7617 10.8791 21.9097 10.7837C22.0577 10.6881 22.4989 10.5851 22.8903 10.5549C23.8455 10.4814 24.6005 10.3448 25.7367 10.0405C26.2586 9.901 26.8457 9.78257 27.0414 9.77767C27.7416 9.76001 29.7823 9.49275 30.4808 9.32724C30.8722 9.23456 31.4593 9.13059 31.7855 9.09651C32.1116 9.06218 32.8588 8.91237 33.4459 8.76305C34.033 8.61397 34.8838 8.43595 35.3367 8.3673C35.7892 8.29889 36.243 8.11009 36.3448 7.94802C36.4869 7.72121 36.5751 7.72587 36.7264 7.96812C36.9172 8.27314 37.7156 8.13878 37.7156 7.80188C37.7156 7.71018 37.9291 7.61847 38.19 7.59812C38.4509 7.57777 38.6644 7.66114 38.6644 7.78349C38.6644 7.9056 38.798 7.96125 38.9609 7.90682C39.1241 7.85263 39.8424 7.74205 40.5571 7.66114C41.3543 7.5709 41.9348 7.37009 42.0588 7.14108C42.1921 6.8949 42.3551 6.84611 42.5382 6.99788C42.9009 7.29898 44.3564 7.0658 44.3609 6.7061C44.3633 6.53324 44.4401 6.55064 44.5637 6.75195C44.7245 7.01406 44.8379 6.99886 45.1531 6.673C45.3678 6.45134 45.5434 6.38784 45.5434 6.5325C45.5434 6.89564 46.6259 6.86327 47.009 6.48861C47.1812 6.32016 47.7762 6.19805 48.3305 6.21742C48.8849 6.23704 49.3386 6.1522 49.3386 6.02887C49.3386 5.90578 49.5993 5.87268 49.9181 5.95531C50.2369 6.03794 50.6371 6.01661 50.8074 5.90774C50.9777 5.79912 51.3307 5.70595 51.5918 5.7008C51.8528 5.69589 52.0397 5.55392 52.0072 5.38523C51.9372 5.02406 52.3464 4.96693 52.4619 5.32172C52.5547 5.60713 54.0932 5.83467 54.4385 5.61424C54.569 5.53112 54.8892 5.45634 55.1502 5.448C55.4111 5.43991 55.8582 5.29794 56.1438 5.13268C56.4875 4.93383 56.7138 4.91666 56.8125 5.08217C56.8948 5.21948 57.043 5.28004 57.1422 5.21678C57.5234 4.9733 60.6915 4.53955 62.5284 4.47923C63.5856 4.44441 64.553 4.35099 64.6775 4.27131C64.8023 4.19162 65.4849 4.09918 66.1947 4.06559C66.9041 4.03224 67.746 3.86502 68.0652 3.69387C68.4884 3.46706 68.7306 3.4553 68.9581 3.65047C69.1573 3.82137 69.6773 3.85325 70.3939 3.738C71.0118 3.6387 71.8909 3.58329 72.3475 3.61467C72.8041 3.6463 73.3378 3.66003 73.5335 3.64532C73.7292 3.63036 74.7613 3.56956 75.8273 3.50948C76.8931 3.44965 77.9807 3.28145 78.2442 3.1358C78.5077 2.98991 78.7786 2.96319 78.8462 3.07622C78.9859 3.30989 79.8491 3.29077 80.083 3.04901C80.1682 2.96123 80.4393 3.0007 80.6857 3.13703C80.9322 3.2736 81.2185 3.33098 81.3222 3.26478C81.5696 3.10663 89.5563 2.82416 93.9882 2.81681C95.9259 2.81362 97.4255 2.71529 97.3544 2.59637C97.2839 2.47819 97.3302 2.38158 97.4576 2.38158C97.5847 2.38158 97.7339 2.51963 97.7887 2.68808C97.8677 2.93058 97.9621 2.9318 98.241 2.69396C98.4363 2.52747 98.6917 2.48554 98.8134 2.6003C99.1652 2.93156 100.543 3.12379 100.699 2.86315C100.777 2.73221 101.101 2.69249 101.42 2.77512C101.82 2.87884 101.999 2.8222 102.002 2.59196C102.004 2.36074 102.059 2.34407 102.18 2.53728C102.283 2.70205 103.032 2.81386 104.014 2.81141C104.928 2.80896 106.369 2.81362 107.217 2.82146C108.065 2.82931 108.865 2.83054 108.996 2.82392C109.814 2.78223 114.658 3.126 114.761 3.23315C114.83 3.30474 115.07 3.19244 115.293 2.98354C115.66 2.64051 115.735 2.64051 116.067 2.98305C116.594 3.52812 117.094 3.48766 116.679 2.93327C116.373 2.52527 116.381 2.52527 116.843 2.92984C117.159 3.20691 117.409 3.27213 117.56 3.11619C117.711 2.96024 118.078 2.96711 118.612 3.13531C119.063 3.27728 120.66 3.43911 122.161 3.49477C123.661 3.55043 124.888 3.60781 124.888 3.62227C124.888 3.69191 126.29 3.83241 128.328 3.96726C129.567 4.04891 131.382 4.17862 132.36 4.25488C133.339 4.33138 134.726 4.42921 135.444 4.47261C138.046 4.62954 139.707 4.79823 140.18 4.95344C140.47 5.04882 140.663 5.00174 140.663 4.8355C140.663 4.68373 140.781 4.63518 140.926 4.72786C141.071 4.82054 141.817 4.92966 142.582 4.97011C143.348 5.01082 144.083 5.11306 144.215 5.19766C144.347 5.282 145.279 5.35115 146.286 5.35115C147.305 5.35115 148.262 5.47473 148.442 5.62969C148.73 5.87685 150.339 6.04407 153.057 6.10978C153.546 6.12155 153.946 6.23189 153.946 6.35498C153.946 6.47807 154.028 6.52661 154.128 6.46262C154.228 6.39887 154.814 6.44398 155.43 6.5629C156.046 6.68207 156.952 6.80172 157.443 6.82894C157.933 6.8564 158.454 6.97189 158.6 7.08591C158.747 7.19992 159.601 7.3387 160.498 7.39436C161.395 7.45002 162.316 7.57066 162.545 7.66212C162.773 7.75358 163.113 7.76755 163.3 7.69326C163.488 7.61896 163.681 7.68247 163.73 7.83449C163.779 7.98627 164.363 8.12406 165.029 8.14049C165.695 8.15717 166.392 8.30134 166.578 8.46145C166.765 8.62157 166.964 8.7042 167.021 8.6456C167.078 8.58675 167.522 8.63137 168.008 8.74465C168.519 8.86382 168.948 8.8572 169.025 8.72921C169.098 8.60735 169.302 8.65761 169.48 8.84102C169.657 9.02442 170.321 9.23774 170.955 9.31547C172.369 9.48858 172.769 9.57636 172.922 9.74751C172.988 9.82057 173.846 10.0729 174.83 10.3083C175.815 10.5437 176.909 10.8911 177.262 11.0804C177.615 11.2699 177.904 11.3589 177.904 11.2788C177.904 11.1983 178.091 11.2984 178.319 11.5011C178.704 11.8432 179.472 12.2414 179.841 12.2909C179.928 12.3024 180.079 12.3946 180.177 12.4959C180.275 12.5969 180.539 12.6798 180.764 12.6798C180.99 12.6798 181.235 12.8453 181.31 13.0476C181.385 13.2499 181.549 13.4154 181.674 13.4154C181.973 13.4154 182.121 12.6246 181.879 12.312C180.823 10.9421 179.58 9.98265 178.862 9.98265C178.596 9.98265 178.378 9.87452 178.378 9.74211C178.378 9.60995 178.096 9.42826 177.751 9.33876C177.406 9.24927 176.925 8.97146 176.683 8.72112C176.441 8.47102 175.998 8.26628 175.698 8.26628C175.398 8.26628 175.051 8.1628 174.927 8.03628C174.803 7.90976 174.435 7.76608 174.108 7.71704C173.782 7.668 173.164 7.43507 172.733 7.19919C172.303 6.96355 171.477 6.74852 170.897 6.72155C170.317 6.69457 169.841 6.5965 169.84 6.50381C169.839 6.41113 169.652 6.33585 169.424 6.33634C168.876 6.33806 168.001 6.15956 167.052 5.85257C166.627 5.71551 166.281 5.6547 166.281 5.71747C166.281 5.78024 166.076 5.7187 165.827 5.58065C165.577 5.44236 164.857 5.31044 164.226 5.28715C163.595 5.26386 162.918 5.16161 162.723 5.06035C162.011 4.69157 159.476 4.26983 157.586 4.20608C156.523 4.17004 155.433 4.01924 155.165 3.8709C154.896 3.72231 154.592 3.62105 154.489 3.64557C154.386 3.67009 153.928 3.60952 153.472 3.51095C152.116 3.21819 151.319 3.11815 149.362 2.99482C148.341 2.93058 147.416 2.82048 147.305 2.75011C147.195 2.67974 146.536 2.57234 145.841 2.51129C145.145 2.45024 143.883 2.32813 143.035 2.23961C142.187 2.15134 140.959 2.0415 140.307 1.9954C139.654 1.94955 138.587 1.83798 137.935 1.74775C137.282 1.65752 135.895 1.53615 134.851 1.47804C132.801 1.36402 131.675 1.28286 129.134 1.06562C124.61 0.679189 122.67 0.628678 122.205 0.885643C121.831 1.09259 121.641 1.07346 121.379 0.802768C121.192 0.609308 120.624 0.456797 120.117 0.463662C119.61 0.470528 118.021 0.401382 116.586 0.309924C112.157 0.0277037 95.2663 -0.0402154 94.9517 0.22288C94.7942 0.35455 94.5297 0.375392 94.3639 0.269467C94.0847 0.0912101 90.7226 -0.0971004 90.5641 0.0568825ZM141.299 4.38925C141.223 4.58467 141.167 4.52655 141.156 4.2409C141.145 3.98247 141.201 3.8378 141.28 3.91921C141.359 4.00061 141.368 4.21221 141.299 4.38925ZM51.6355 5.37003C51.5598 5.56545 51.5036 5.50734 51.4922 5.22168C51.482 4.96325 51.538 4.81858 51.6167 4.89999C51.6955 4.98139 51.704 5.193 51.6355 5.37003ZM43.9621 6.20001C43.7814 6.68673 43.7181 6.64186 43.5874 5.93471C43.4977 5.44996 43.539 5.37591 43.7828 5.58482C43.9529 5.73071 44.0335 6.00754 43.9621 6.20001ZM40.3248 7.0403C40.3248 7.17516 40.2779 7.2855 40.2202 7.2855C40.1626 7.2855 40.0497 7.17516 39.969 7.0403C39.8884 6.90544 39.9356 6.7951 40.0736 6.7951C40.2117 6.7951 40.3248 6.90544 40.3248 7.0403ZM1.7093 14.1777C1.26952 14.3479 1.21022 14.4754 1.40022 14.8422C1.57338 15.1769 1.82529 15.2671 2.35948 15.1859C2.75774 15.1256 3.08366 14.9817 3.08366 14.8665C3.08366 14.7512 2.93209 14.7169 2.74683 14.7904C2.53762 14.8733 2.38012 14.7424 2.33173 14.4455C2.26815 14.0563 2.15169 14.0063 1.7093 14.1777ZM0 14.571C0 14.7446 0.113146 14.8866 0.2512 14.8866C0.389253 14.8866 0.431476 15.005 0.344897 15.1499C0.255708 15.2992 0.393522 15.2803 0.663224 15.1063C0.924624 14.9373 1.08735 14.6607 1.02449 14.4918C0.876235 14.0919 0 14.1596 0 14.571Z" fill="#6966FF"/>
</svg>
