<svg width="268" height="26" viewBox="0 0 268 26" fill="none" xmlns="http://www.w3.org/2000/svg">
<path fill-rule="evenodd" clip-rule="evenodd" d="M191.728 0.0825208C191.64 0.169554 187.916 0.290085 183.452 0.350507C178.987 0.410616 173.775 0.540227 171.869 0.637904C166.768 0.899316 165.565 0.907455 165.2 0.682985C165.019 0.571532 164.796 0.554941 164.704 0.646044C164.489 0.859244 161.169 1.06211 154.921 1.24369C152.183 1.32352 149.832 1.45658 149.696 1.53986C149.561 1.62313 148.187 1.78248 146.644 1.89394C145.1 2.00539 143.793 2.21514 143.738 2.36009C143.683 2.50505 143.329 2.51413 142.95 2.38013C142.336 2.16286 141.525 2.14001 139.832 2.2931C139.454 2.32722 139.353 2.50692 139.499 2.88981C139.694 3.40011 139.669 3.39917 139.138 2.87572C138.669 2.41426 138.25 2.34851 136.793 2.50692C135.817 2.61305 134.346 2.68287 133.523 2.66189C132.599 2.63841 132.026 2.75926 132.026 2.97747C132.026 3.21446 131.689 3.25547 131.003 3.10238C130.44 2.97653 129.837 2.88793 129.664 2.90577C129.491 2.92331 128.286 2.96588 126.987 3.00032C125.688 3.03476 124.495 3.13494 124.337 3.22228C123.988 3.41513 123.024 3.51219 119.113 3.74793C117.467 3.84717 115.696 3.98492 115.176 4.05348C112.912 4.3534 110.283 4.57662 108.089 4.6552C106.79 4.70185 104.947 4.90315 103.995 5.10226C102.224 5.47262 98.3902 5.81763 96.4623 5.78006C95.8708 5.76847 95.2708 5.94129 95.1288 6.16388C94.9187 6.49291 94.8696 6.49166 94.8655 6.15793C94.8611 5.77286 94.1225 5.78851 91.7111 6.22399C89.9001 6.55146 88.1624 6.77968 86.6717 6.88644C85.7189 6.955 84.1599 7.08837 83.2071 7.18323C82.2543 7.2784 80.5535 7.41678 79.4275 7.49098C78.3015 7.56517 77.3803 7.64532 77.3803 7.6688C77.3803 7.71482 76.9012 7.83817 75.6905 8.10428C75.2807 8.19444 73.8634 8.35786 72.5409 8.46775C69.949 8.68283 68.8763 8.80618 68.8763 8.88883C68.8763 8.91763 68.0259 9.00623 66.9865 9.08575C63.9666 9.31711 62.6913 9.46863 60.8447 9.81489C59.8919 9.99365 58.3329 10.2244 57.3801 10.3277C56.4273 10.4313 55.0903 10.5763 54.4087 10.6502C53.7275 10.724 53.0323 10.9213 52.8645 11.0881C52.6673 11.2841 52.353 11.2819 51.9775 11.0822C51.5974 10.8799 51.1961 10.879 50.8203 11.0787C50.5038 11.2472 49.4761 11.4153 48.5369 11.4522C47.5973 11.4892 46.4745 11.6517 46.0414 11.8129C45.6083 11.9744 44.7579 12.1444 44.1516 12.1911C41.5588 12.3896 39.2439 12.7621 38.904 13.0354C38.6747 13.2201 38.4675 13.2161 38.3487 13.0245C38.2256 12.8269 37.7997 12.8263 37.1396 13.0226C36.5786 13.1895 35.3566 13.3942 34.4233 13.4775C33.4898 13.5604 32.6013 13.7054 32.4482 13.7996C32.2954 13.8935 31.5707 14.0307 30.8381 14.1046C28.9707 14.293 27.8141 14.4843 26.3562 14.8459C25.6632 15.0178 24.8484 15.0829 24.5451 14.9905C24.2418 14.8982 23.9936 14.9376 23.9933 15.0785C23.9927 15.2191 23.5832 15.3484 23.0828 15.3659C22.5826 15.3831 21.9095 15.5052 21.5876 15.637C21.2654 15.7688 20.266 15.9069 19.3665 15.9435C18.4673 15.9801 17.5394 16.1683 17.3047 16.3618C17.0701 16.5556 16.6014 16.7212 16.2628 16.7306C14.2953 16.7838 12.6008 17.0233 12.259 17.2966C12.0439 17.4691 11.4071 17.708 10.8442 17.8276C10.2811 17.9472 9.81995 18.1397 9.81932 18.2549C9.81837 18.3704 9.3579 18.4975 8.79569 18.5373C7.06559 18.6597 6.50937 18.8447 6.60984 19.2639C6.68008 19.557 6.59441 19.577 6.29488 19.3372C5.72007 18.877 4.01139 19.1954 3.24445 19.9057C2.89138 20.2326 2.37326 20.4999 2.09295 20.4999C1.40349 20.4999 -0.362197 22.2775 0.0661538 22.5405C0.248203 22.6526 0.311511 23.0126 0.206629 23.341C-0.00408216 24.0006 0.335763 24.793 0.647262 24.3685C0.75561 24.221 1.16317 23.923 1.55278 23.7064C2.17767 23.3589 2.26145 23.3823 2.26145 23.9045C2.26145 24.2373 2.54303 24.5698 2.90429 24.6637C3.44571 24.8046 3.51312 24.7238 3.33107 24.1537C3.21201 23.7812 2.88728 23.2894 2.60917 23.0608C2.16696 22.6967 2.20224 22.6667 2.89138 22.8204C3.32445 22.9168 3.78052 22.9979 3.90525 23.0001C4.02966 23.0026 4.04981 23.2158 3.95029 23.4741C3.85044 23.7323 3.92572 23.9437 4.11753 23.9437C4.30934 23.9437 4.4662 23.8072 4.4662 23.6403C4.4662 23.4738 4.69297 23.4237 4.97045 23.5295C5.24762 23.6353 5.60007 23.5251 5.75314 23.285C5.97991 22.929 6.0322 22.9434 6.03629 23.3623C6.03881 23.6453 6.28921 23.9806 6.5922 24.1074C7.4193 24.4537 9.79034 24.3585 10.2741 23.9593C10.5944 23.6951 10.8231 23.7324 11.2045 24.1118C11.6127 24.5175 11.7104 24.5291 11.7104 24.171C11.7104 23.9271 11.9812 23.4838 12.3126 23.186C12.8981 22.6592 12.9072 22.6764 12.6502 23.8087C12.4521 24.6831 12.5003 25.0864 12.8436 25.4279C13.4575 26.0381 14.2288 25.6981 14.2348 24.8143C14.2383 24.3253 14.3208 24.227 14.4962 24.5022C14.6455 24.7357 14.9866 24.8149 15.3107 24.6913C15.6175 24.5742 15.9624 24.6293 16.077 24.8137C16.3132 25.1941 18.6396 24.6021 18.6396 24.1616C18.6396 24.0213 18.5126 23.9847 18.3577 24.0799C18.2024 24.1753 17.9933 24.0395 17.8922 23.7781C17.7429 23.3911 17.8241 23.3645 18.3318 23.6344C18.6742 23.8166 18.9545 23.8685 18.9545 23.7496C18.9545 23.6309 19.238 23.7887 19.5845 24.1002C20.1511 24.6099 20.2144 24.6146 20.2144 24.1487C20.2144 23.8638 20.427 23.6306 20.6868 23.6306C20.9467 23.6306 21.4673 23.3244 21.844 22.95C22.2881 22.5086 22.4616 22.4428 22.3382 22.7631C22.0667 23.4656 22.4128 23.6816 22.9514 23.146C23.5505 22.5508 23.9939 22.568 23.9939 23.187C23.9939 23.4597 24.1713 23.6203 24.3876 23.5439C24.6043 23.4675 24.7442 23.0849 24.6988 22.6939C24.6261 22.064 24.6765 22.0321 25.1398 22.4143C25.6125 22.8041 25.6488 22.7484 25.514 21.837C25.3949 21.0296 25.4478 20.8963 25.7788 21.1696C26.028 21.3749 26.1165 21.8126 26.0009 22.27C25.8223 22.9766 25.8872 23.0239 26.9395 22.9534C28.0765 22.8774 28.5219 22.4231 28.2217 21.6457C28.1326 21.415 28.2661 21.0562 28.5184 20.848C28.8986 20.5347 29.0126 20.6327 29.1877 21.4241C29.3483 22.1523 29.571 22.3783 30.1269 22.3783C30.9074 22.3783 31.3717 21.6971 30.9065 21.2347C30.7398 21.0691 30.8926 20.787 31.2791 20.5472C31.6391 20.3237 31.84 20.292 31.725 20.4767C31.6025 20.6737 31.7773 20.813 32.1458 20.813C32.4923 20.813 32.8633 20.6721 32.9704 20.4999C33.3654 19.8644 33.7644 20.2085 33.5619 21.0102C33.4044 21.6335 33.4605 21.7988 33.7921 21.6905C34.0331 21.6119 34.274 21.1812 34.3276 20.7335C34.4259 19.9139 35.1975 19.0091 35.5229 19.3325C35.6193 19.428 35.4577 19.871 35.1641 20.3161C34.8432 20.8033 34.7701 21.1261 34.9814 21.1261C35.1745 21.1261 35.3326 21.0152 35.3326 20.8797C35.3326 20.7441 35.7682 20.6001 36.3002 20.5597C36.8939 20.5149 37.1912 20.6101 37.069 20.8064C36.7645 21.2964 37.4101 21.1862 37.8369 20.6749C38.0438 20.427 38.4013 20.2958 38.6309 20.3835C38.8605 20.4708 39.1301 20.411 39.2303 20.2501C39.3302 20.0895 39.7531 20.0225 40.1702 20.1017C40.5872 20.1809 41.024 20.0917 41.1412 19.9032C41.4146 19.4633 43.5217 19.4536 43.5217 19.8923C43.5217 20.0745 43.6785 20.1274 43.8703 20.0097C44.1195 19.8566 44.1097 19.7285 43.8367 19.5607C43.3088 19.2364 43.9094 18.8945 45.5208 18.6018C46.4307 18.4362 46.9031 18.4941 47.2209 18.81C47.8361 19.4214 48.3551 19.3566 48.1054 18.6998C47.9145 18.1973 47.9394 18.1935 48.4065 18.6525C48.9992 19.2348 50.1353 19.1039 50.9892 18.3551C51.7948 17.6485 52.466 17.5317 52.2317 18.1391C52.1293 18.4045 52.1829 18.6215 52.3504 18.6215C52.5183 18.6215 52.6556 18.465 52.6556 18.2737C52.6556 18.0455 53.0355 17.9966 53.758 18.1312C54.7152 18.3097 54.8604 18.2555 54.8604 17.7192C54.8604 17.0696 56.3961 15.6486 56.7196 15.9989C56.8229 16.111 56.7306 16.2657 56.5139 16.3424C56.2976 16.4194 56.1202 16.739 56.1202 17.053C56.1202 17.8263 57.2084 17.5373 57.6025 16.6595L57.8966 16.0043L58.5373 16.641C59.1143 17.2146 59.2611 17.2346 60.0113 16.8439C60.7398 16.4648 60.8447 16.4704 60.8447 16.8896C60.8447 17.1604 61.1187 17.3692 61.4746 17.3692C61.8211 17.3692 62.1045 17.2283 62.1045 17.0562C62.1045 16.884 62.4589 16.7431 62.892 16.7431C63.325 16.7431 63.6794 16.5872 63.6794 16.3965C63.6794 16.2059 63.8743 16.1245 64.1128 16.2153C64.3739 16.3148 64.5301 16.1858 64.5065 15.8903C64.4825 15.5935 64.7474 15.3769 65.1773 15.3412C65.8306 15.287 65.8526 15.3355 65.452 15.9429C65.0501 16.5527 65.0743 16.6013 65.7628 16.5715C66.1736 16.5534 66.6038 16.4451 66.7191 16.3308C66.8344 16.2162 67.103 16.2663 67.3159 16.4419C67.8372 16.8721 69.4319 16.1573 69.2133 15.5916C69.0199 15.0901 69.4076 15.0485 69.8819 15.5199C70.1282 15.7648 70.4057 15.7663 70.8583 15.5256C71.3506 15.2638 71.5301 15.292 71.6697 15.653C71.7679 15.9081 72.11 16.117 72.4297 16.117C73.2505 16.117 74.8325 14.3995 74.59 13.7714C74.4684 13.4559 74.5223 13.3447 74.7343 13.475C74.9204 13.5896 74.9995 13.9624 74.9097 14.304C74.7144 15.0459 74.9626 15.8039 75.4004 15.8039C75.5736 15.8039 75.6338 15.5926 75.534 15.3343C75.3308 14.808 76.1204 14.6709 76.4354 15.1778C76.5425 15.3499 76.8697 15.4795 77.1626 15.4661C77.4905 15.4507 77.5441 15.3806 77.3015 15.2836C77.0852 15.1965 76.9179 14.8202 76.9299 14.4474C76.9513 13.7905 76.9607 13.7887 77.2228 14.3951C77.3718 14.7395 77.5034 14.8368 77.5157 14.6114C77.5277 14.386 77.6795 14.2886 77.8527 14.3951C78.026 14.5015 78.1721 14.4042 78.1778 14.1787C78.1838 13.9308 78.3753 14.0156 78.6625 14.3935C79.0701 14.9295 79.18 14.9517 79.4367 14.55C79.6011 14.2927 79.6738 13.913 79.5976 13.7066C79.5183 13.4903 79.6427 13.4011 79.8918 13.4959C80.4058 13.6922 80.7614 14.4924 80.5123 14.8929C80.2805 15.266 80.7598 15.2538 81.8014 14.8603C82.3545 14.6512 82.58 14.3841 82.4616 14.0776C82.3627 13.8219 82.4194 13.6124 82.5869 13.6124C82.7548 13.6124 82.8921 13.7445 82.8921 13.9061C82.8921 14.5494 84.2339 14.0654 84.5192 13.3191C84.7611 12.687 84.8733 12.6253 85.1079 12.9969C85.267 13.2492 85.317 13.7129 85.2185 14.0269C85.0622 14.5259 85.1725 14.5726 86.0919 14.3951C86.6708 14.2833 87.3952 14.1941 87.7023 14.1963C88.009 14.1988 88.1779 14.0682 88.0774 13.9064C87.9766 13.7448 88.1035 13.6124 88.3593 13.6124C88.6147 13.6124 88.8837 13.7884 88.9564 14.0037C89.0598 14.309 89.2037 14.3008 89.6109 13.9668C89.8982 13.7314 90.4198 13.613 90.77 13.7041C91.1206 13.7952 91.6084 13.67 91.8541 13.4255C92.1284 13.1528 92.3754 13.1015 92.4941 13.2921C92.7571 13.7151 94.1924 13.5658 94.6041 13.073C94.8573 12.7696 94.7738 12.6732 94.2582 12.6732C93.6478 12.6732 93.6185 12.6018 93.9697 11.9688C94.3077 11.3599 94.3763 11.3386 94.4765 11.8123C94.5398 12.1137 94.8551 12.3601 95.1764 12.3601C95.4976 12.3601 95.948 12.5458 96.177 12.7728C96.4072 13.001 97.44 13.2192 98.4901 13.2615C100.117 13.3269 100.516 13.2276 101.293 12.5639C102.122 11.8564 103.284 11.7306 102.872 12.393C102.776 12.547 102.836 12.6732 103.005 12.6732C103.174 12.6732 103.384 12.4969 103.471 12.2819C103.598 11.9688 103.635 11.9688 103.655 12.2819C103.694 12.8936 105.796 12.7743 106.153 12.14C106.398 11.7061 106.541 11.6792 106.926 11.9967C107.304 12.3085 107.431 12.3053 107.562 11.9819C107.677 11.7002 107.805 11.6801 107.987 11.9162C108.13 12.1025 108.743 12.2434 109.349 12.2293C110.281 12.2077 110.438 12.1019 110.361 11.5471C110.311 11.1861 110.497 10.7037 110.775 10.4748C111.22 10.1079 111.255 10.153 111.076 10.8624C110.96 11.3198 111.019 11.7556 111.213 11.8749C111.401 11.9898 111.554 11.93 111.554 11.7418C111.554 11.5427 111.916 11.4588 112.42 11.5411C112.896 11.6188 113.286 11.7058 113.286 11.734C113.286 11.7622 113.694 11.8517 114.193 11.9325C114.994 12.0621 115.08 12.0007 114.924 11.4084C114.76 10.7854 114.787 10.7732 115.301 11.2356C115.991 11.8561 116.593 11.878 116.593 11.2829C116.593 11.0346 116.759 10.73 116.962 10.6054C117.21 10.4532 117.264 10.5497 117.129 10.9C116.981 11.2835 117.102 11.4209 117.587 11.4209C118.11 11.4209 118.171 11.3323 117.886 10.9905C117.597 10.6445 117.682 10.56 118.32 10.56C118.783 10.56 119.113 10.7391 119.113 10.9905C119.113 11.5671 119.629 11.5399 119.857 10.9513C119.956 10.693 120.22 10.493 120.442 10.5065C120.758 10.5259 120.76 10.5653 120.452 10.689C120.235 10.776 120.058 10.9811 120.058 11.1451C120.058 11.3211 120.315 11.306 120.688 11.1079C121.034 10.9235 121.318 10.8878 121.318 11.0287C121.318 11.6319 123.053 11.3737 124.043 10.6229C125.055 9.8559 125.097 9.84964 125.097 10.4658C125.097 11.2738 126.19 11.3402 126.647 10.56C126.825 10.256 126.972 10.1862 126.978 10.4035C126.983 10.6304 127.398 10.7948 127.966 10.7948C128.64 10.7948 128.895 10.668 128.787 10.3869C128.582 9.85746 130.775 9.67588 131.098 10.1956C131.224 10.3969 131.491 10.4611 131.692 10.3374C131.958 10.1737 131.963 10.0008 131.712 9.69905C131.505 9.45141 131.484 9.21254 131.66 9.10422C131.822 9.00466 132.033 9.21974 132.128 9.58165L132.301 10.2397L133.236 9.5782C134.33 8.80367 134.681 8.742 134.44 9.36563C134.345 9.61296 134.436 9.88345 134.643 9.96704C134.849 10.0509 134.742 10.1305 134.404 10.1439C134.03 10.1589 133.907 10.2779 134.089 10.4482C134.254 10.6019 134.845 10.657 135.403 10.5706C136.21 10.4454 136.402 10.2767 136.347 9.74319C136.307 9.34747 136.44 9.10485 136.672 9.15118C136.889 9.19438 137.068 9.0535 137.071 8.83811C137.074 8.57732 137.177 8.60331 137.381 8.91638C137.549 9.17466 137.69 9.2451 137.696 9.07291C137.701 8.90072 137.825 8.94674 137.97 9.17497C138.116 9.4032 138.82 9.66806 139.536 9.76323C140.635 9.91006 140.936 9.82177 141.487 9.19188C142.077 8.51753 142.122 8.5072 141.965 9.08418C141.835 9.5588 141.951 9.7385 142.421 9.78859C143.409 9.89378 144.078 9.88626 145.097 9.75885C145.617 9.69373 146.468 9.61389 146.987 9.58165C147.849 9.5278 147.883 9.48554 147.374 9.1014C146.845 8.70287 146.849 8.67125 147.452 8.5144C147.864 8.40764 148.09 8.50125 148.09 8.77925C148.09 9.02689 148.284 9.13584 148.547 9.03534C148.799 8.93954 149.177 8.96709 149.388 9.0967C149.6 9.22663 150.35 9.30552 151.057 9.27234C151.764 9.23915 153.015 9.18061 153.838 9.14241C154.787 9.09827 155.334 8.92984 155.334 8.68158C155.334 8.44302 155.764 8.29024 156.436 8.29024C157.042 8.29024 157.539 8.43957 157.539 8.62178C157.539 8.80399 157.687 8.86253 157.867 8.75139C158.048 8.64025 158.399 8.71727 158.648 8.92233C158.961 9.18029 159.369 9.20534 159.973 9.0031C160.453 8.84249 161.392 8.7683 162.06 8.83811C162.917 8.92765 163.21 8.8594 163.053 8.60675C162.916 8.38667 163.017 8.28648 163.316 8.34753C163.584 8.40201 164.031 8.16501 164.309 7.82064C164.808 7.20327 164.813 7.20421 164.62 7.8989C164.481 8.40388 164.56 8.60331 164.9 8.60331C165.162 8.60331 165.469 8.45272 165.583 8.26895C165.698 8.08487 165.99 8.01004 166.232 8.1024C166.477 8.19569 166.672 8.0808 166.672 7.84443C166.672 7.03671 167.601 7.03452 168.132 7.84099C168.558 8.48622 168.868 8.61082 169.899 8.5504C170.604 8.50908 171.222 8.29149 171.314 8.05262C171.404 7.81907 171.69 7.70918 171.95 7.80811C172.21 7.90704 172.641 7.80937 172.909 7.59116C173.328 7.25023 173.37 7.29312 173.213 7.8989C173.113 8.28617 173.072 8.60331 173.123 8.60331C173.443 8.60331 175.004 7.63436 175.234 7.29343C175.408 7.03327 175.439 7.19043 175.315 7.71952L175.12 8.55791L177.875 8.4377C179.39 8.37133 180.77 8.17754 180.942 8.0066C181.114 7.83567 181.34 7.17196 181.445 6.53173C181.55 5.89151 181.813 5.30858 182.031 5.23657C182.335 5.13576 182.35 5.30263 182.099 5.95882C181.92 6.4278 181.843 6.88112 181.928 6.96596C182.014 7.0508 181.942 7.38359 181.769 7.70511C181.525 8.15844 181.563 8.29024 181.937 8.29024C182.203 8.29024 182.421 8.15812 182.421 7.99658C182.421 7.83504 182.669 7.71826 182.972 7.73736C183.275 7.75615 183.827 7.67193 184.199 7.55046C184.604 7.41803 185.045 7.49035 185.301 7.73173C185.992 8.38228 186.955 8.20383 187.356 7.35103L187.724 6.56836L187.75 7.43963C187.775 8.30652 187.784 8.30996 189.586 8.15969C190.582 8.07673 192.061 8.00159 192.872 7.99283C194.1 7.97968 194.383 7.86384 194.563 7.3C194.755 6.6986 194.812 6.68138 195.073 7.14566C195.303 7.55296 195.503 7.59617 195.981 7.34196C196.402 7.11811 196.594 7.11748 196.594 7.34008C196.594 7.51821 196.807 7.6641 197.066 7.6641C197.326 7.6641 197.539 7.79966 197.539 7.96527C197.539 8.44521 203.418 8.13997 204.043 7.62748C204.476 7.27246 204.596 7.26901 204.711 7.60869C204.813 7.91143 205.072 7.82721 205.673 7.29562C206.126 6.89552 206.303 6.81819 206.067 7.12375C205.536 7.81219 205.855 8.20853 206.508 7.67036C206.898 7.34822 206.99 7.35448 206.998 7.70418C207.005 7.99282 207.158 7.93616 207.467 7.53042C207.719 7.19857 208.02 7.02043 208.135 7.13408C208.249 7.24803 208.543 7.09682 208.788 6.79816C209.114 6.40025 209.276 6.36017 209.397 6.64851C209.487 6.86484 209.726 6.95845 209.928 6.85607C210.13 6.75401 209.957 6.94436 209.543 7.27903C209.059 7.67162 208.916 7.96371 209.141 8.10177C209.332 8.21949 209.802 7.95807 210.185 7.5204C210.924 6.67543 211.894 6.42811 211.613 7.15631C211.449 7.5802 211.931 8.29024 212.383 8.29024C212.51 8.29024 212.676 7.9731 212.753 7.58584C212.889 6.89677 212.897 6.89552 213.111 7.52854C213.31 8.11617 213.553 8.16971 215.75 8.10866C217.08 8.07172 218.204 8.01192 218.248 7.97592C218.486 7.77712 221.114 7.83222 221.751 8.04918C222.227 8.21166 222.664 8.16689 222.956 7.92583C223.26 7.67506 223.485 7.65565 223.626 7.86822C224.017 8.45773 225.214 8.56167 225.638 8.04292C225.983 7.62027 225.962 7.57707 225.492 7.75207C225.15 7.87949 224.941 7.80843 224.941 7.56423C224.941 6.8639 226.126 7.03484 226.327 7.76429C226.485 8.33595 226.566 8.3707 226.826 7.97717C226.996 7.71889 227.138 7.66849 227.141 7.86541C227.148 8.40107 228.056 8.6437 228.724 8.28836C229.062 8.10835 229.386 8.09426 229.486 8.25518C229.695 8.59079 232.216 8.50187 232.808 8.13778C233.087 7.96684 233.152 8.00096 233.004 8.23984C232.86 8.47151 233.038 8.59423 233.506 8.58546C234.204 8.57232 236.437 8.8284 236.437 8.9217C236.437 8.94674 237.11 9.01092 237.933 9.06477C238.756 9.11862 239.43 9.07197 239.43 8.96115C239.431 8.85063 240.069 8.74732 240.848 8.73229C241.89 8.71163 242.264 8.82465 242.264 9.15995C242.264 9.45767 242.477 9.56005 242.879 9.4558C243.217 9.36782 243.56 9.45705 243.641 9.65397C243.722 9.85089 243.8 9.7554 243.814 9.44202C243.836 8.92358 243.884 8.91638 244.333 9.36375C244.8 9.8271 245.119 9.8944 247.462 10.025C247.983 10.0541 248.715 10.1743 249.089 10.2923C249.464 10.4107 249.858 10.3659 249.965 10.1934C250.089 9.99396 250.435 9.98363 250.915 10.1649C251.441 10.3637 251.717 10.3365 251.824 10.0747C251.909 9.86811 251.989 9.94543 252.003 10.2469C252.016 10.5484 252.134 10.8001 252.264 10.8067C253.258 10.8565 255.118 11.2271 255.571 11.4657C256.02 11.7021 256.123 11.6235 256.127 11.0406C256.131 10.4639 256.191 10.4163 256.437 10.7948C256.688 11.1814 256.743 11.1861 256.747 10.8208C256.75 10.5769 256.842 10.4664 256.951 10.575C257.06 10.6837 257.415 10.632 257.738 10.4598C258.416 10.0992 258.436 10.1552 258.02 11.244C257.779 11.8717 257.81 12.0471 258.159 12.0471C258.404 12.0471 258.688 11.9124 258.791 11.7478C259 11.4115 259.946 11.6761 260.272 12.162C260.389 12.336 260.867 12.5298 261.334 12.5918C261.801 12.6541 262.386 12.9058 262.633 13.1516C262.995 13.5113 263.202 13.5241 263.697 13.217C264.035 13.0072 264.311 12.7411 264.311 12.6256C264.311 12.3367 264.959 12.4703 265.807 12.934C266.347 13.2289 266.516 13.2327 266.516 12.9487C266.516 12.7258 266.77 12.8044 267.148 13.1447C268.084 13.9872 268.294 13.4559 267.551 12.1219C267.05 11.2221 266.968 10.7716 267.197 10.1743C267.402 9.63957 267.385 9.36062 267.142 9.28048C266.949 9.2163 266.656 8.81275 266.492 8.38353C266.328 7.95463 265.921 7.53293 265.589 7.44652C265.257 7.36011 264.915 7.10903 264.83 6.88863C264.661 6.45034 258.879 4.62608 258.362 4.84774C258.295 4.87654 258.13 4.72376 257.996 4.50837C257.863 4.29329 256.429 3.87034 254.812 3.56885C253.194 3.26705 251.516 2.93802 251.083 2.83721C250.65 2.7364 249.516 2.57549 248.563 2.48C247.61 2.3842 246.556 2.22579 246.22 2.1278C245.885 2.0295 244.822 1.90771 243.858 1.85699C242.895 1.80596 241.752 1.67166 241.319 1.55833C240.886 1.445 239.327 1.3038 237.854 1.24432C236.382 1.18484 235.177 1.11596 235.177 1.09154C235.177 1.06712 234.575 0.99261 233.838 0.926239C233.018 0.852355 232.5 0.936258 232.5 1.14257C232.5 1.3708 232.358 1.36266 232.061 1.11721C231.819 0.917787 230.473 0.732139 229.068 0.704902C227.664 0.677352 226.516 0.576543 226.516 0.480744C226.516 0.385258 224.212 0.269423 221.397 0.223402C218.582 0.177694 216.067 0.133864 215.807 0.126037C215.547 0.118211 214.413 0.162039 213.287 0.223088C212.161 0.284136 210.885 0.246256 210.452 0.138873C210.019 0.0314907 209.205 0.0458912 208.641 0.170493C208.078 0.295407 207.618 0.281006 207.618 0.138246C207.618 -0.00451307 207.228 -0.04302 206.752 0.052466C205.53 0.296973 194.474 0.348942 193.059 0.116959C192.414 0.0111413 191.815 -0.00419925 191.728 0.0825208ZM219.582 6.48039C219.584 6.60405 219.383 6.62753 219.134 6.53267C218.885 6.43781 218.763 6.14854 218.863 5.88994C219.01 5.50769 219.094 5.49798 219.31 5.83766C219.457 6.06745 219.579 6.35642 219.582 6.48039ZM159.138 6.02049C159.151 6.14948 159.209 6.50262 159.267 6.80473C159.325 7.10684 159.261 7.28498 159.124 7.20076C158.748 6.97003 158.5 5.78569 158.828 5.78569C158.985 5.78569 159.124 5.89151 159.138 6.02049ZM195.649 5.92376C195.649 5.99983 195.507 6.14885 195.334 6.25529C195.161 6.36174 195.019 6.29944 195.019 6.11723C195.019 5.93502 195.161 5.78569 195.334 5.78569C195.507 5.78569 195.649 5.84768 195.649 5.92376ZM183.208 7.03797C183.315 7.21015 183.252 7.35103 183.069 7.35103C182.886 7.35103 182.736 7.21015 182.736 7.03797C182.736 6.86578 182.798 6.7249 182.875 6.7249C182.951 6.7249 183.101 6.86578 183.208 7.03797ZM155.649 7.4891C155.649 7.56517 155.507 7.71419 155.334 7.82064C155.161 7.92708 155.019 7.86478 155.019 7.68257C155.019 7.50037 155.161 7.35103 155.334 7.35103C155.507 7.35103 155.649 7.41302 155.649 7.4891ZM157.453 7.54013C157.349 7.64407 157.077 7.65534 156.85 7.56486C156.598 7.46499 156.673 7.3908 157.04 7.37577C157.372 7.36231 157.558 7.43619 157.453 7.54013ZM158.641 7.6641C158.748 7.83629 158.606 7.97717 158.326 7.97717C158.046 7.97717 157.904 7.83629 158.011 7.6641C158.118 7.49192 158.26 7.35103 158.326 7.35103C158.392 7.35103 158.534 7.49192 158.641 7.6641ZM161.948 7.62748C161.948 7.77963 161.629 7.98406 161.239 8.08174C160.555 8.25299 160.551 8.24359 161.142 7.80498C161.855 7.27558 161.948 7.25492 161.948 7.62748ZM150.609 7.80217C150.609 7.87824 150.468 8.02726 150.294 8.13371C150.121 8.24015 149.979 8.17785 149.979 7.99564C149.979 7.81344 150.121 7.6641 150.294 7.6641C150.468 7.6641 150.609 7.72609 150.609 7.80217ZM136.036 8.16626C135.931 8.2702 135.659 8.28147 135.432 8.191C135.181 8.09113 135.255 8.01693 135.622 8.00191C135.954 7.98844 136.14 8.06233 136.036 8.16626ZM139.486 9.2883C139.385 9.53782 139.311 9.46362 139.296 9.0989C139.282 8.76892 139.356 8.58421 139.461 8.68815C139.565 8.79209 139.577 9.06227 139.486 9.2883ZM250.138 9.38598C250.138 10.1737 249.643 10.1386 249.577 9.34622C249.539 8.89822 249.645 8.65027 249.825 8.7611C249.997 8.86691 250.138 9.14805 250.138 9.38598ZM119.27 9.54251C119.378 9.7147 119.315 9.85558 119.132 9.85558C118.948 9.85558 118.798 9.7147 118.798 9.54251C118.798 9.37033 118.86 9.22945 118.937 9.22945C119.013 9.22945 119.163 9.37033 119.27 9.54251ZM136.643 9.71502C136.74 9.96453 136.945 10.1687 137.1 10.1687C137.553 10.1687 137.423 9.62548 136.924 9.43544C136.619 9.31898 136.526 9.41165 136.643 9.71502ZM259.562 9.72942C259.209 10.1508 259.228 10.276 259.68 10.5274C260.435 10.9476 260.385 11.5324 259.628 11.1298C259.305 10.9576 258.928 10.9175 258.791 11.0406C258.654 11.1636 258.635 11.0064 258.749 10.6909C258.863 10.3756 258.957 9.91757 258.957 9.67338C258.957 9.42918 259.187 9.22945 259.468 9.22945C259.9 9.22945 259.915 9.30646 259.562 9.72942ZM102.32 10.5406C102.22 10.7901 102.145 10.7159 102.13 10.3512C102.116 10.0212 102.191 9.83649 102.295 9.94043C102.4 10.0444 102.411 10.3145 102.32 10.5406ZM253.602 9.99365C253.602 10.0697 253.461 10.2187 253.287 10.3252C253.114 10.4316 252.973 10.3693 252.973 10.1871C252.973 10.0049 253.114 9.85558 253.287 9.85558C253.461 9.85558 253.602 9.91757 253.602 9.99365ZM254.547 10.1687C254.547 10.3408 254.406 10.4817 254.232 10.4817C254.059 10.4817 253.917 10.3408 253.917 10.1687C253.917 9.99646 254.059 9.85558 254.232 9.85558C254.406 9.85558 254.547 9.99646 254.547 10.1687ZM101.475 10.7948C101.475 11.1392 101.346 11.4209 101.19 11.4209C101.032 11.4209 100.978 11.1392 101.069 10.7948C101.159 10.4504 101.288 10.1687 101.354 10.1687C101.421 10.1687 101.475 10.4504 101.475 10.7948ZM103.365 10.7948C103.365 10.967 103.302 11.1079 103.226 11.1079C103.149 11.1079 102.999 10.967 102.892 10.7948C102.785 10.6226 102.848 10.4817 103.031 10.4817C103.215 10.4817 103.365 10.6226 103.365 10.7948ZM100.43 11.4798C100.33 11.7293 100.255 11.6551 100.24 11.2904C100.226 10.9604 100.301 10.7757 100.405 10.8796C100.51 10.9836 100.521 11.2537 100.43 11.4798ZM263.681 12.4644C263.681 12.6942 263.469 12.882 263.209 12.882C262.711 12.882 262.595 12.6053 262.946 12.2559C263.294 11.9103 263.681 12.0201 263.681 12.4644ZM57.8396 17.0771C57.7253 17.2606 57.6995 17.4782 57.782 17.5602C57.8645 17.6422 58.016 17.492 58.1187 17.2262C58.3316 16.6745 58.1502 16.5775 57.8396 17.0771ZM26.8863 21.194C26.6604 21.4185 26.5137 21.4369 26.5137 21.241C26.5137 21.0628 26.6081 20.8233 26.7237 20.7087C26.839 20.5938 27.0069 20.5725 27.0963 20.6618C27.1858 20.7507 27.0913 20.9902 26.8863 21.194ZM9.19065 23.1228C9.19065 23.1876 8.94277 23.4343 8.63946 23.6707C8.13993 24.0598 8.12891 24.0489 8.52041 23.5523C8.93207 23.0308 9.19065 22.8652 9.19065 23.1228ZM13.8285 24.5698C13.7762 25.2592 13.2852 25.4477 13.2852 24.7786C13.2852 24.4051 13.5646 23.9437 13.7907 23.9437C13.8376 23.9437 13.8546 24.2254 13.8285 24.5698Z" fill="#6966FF"/>
</svg>
